<svg width="33" height="33" viewBox="0 0 33 33" fill="none" xmlns="http://www.w3.org/2000/svg">
<g clip-path="url(#clip0_5517_23462)">
<path d="M7.88641 6.70165C8.35183 5.65765 8.01494 4.72083 7.35352 4.85234C6.12378 5.09658 7.19852 6.93437 7.19852 6.93437" stroke="#00778F" stroke-width="0.81684" stroke-miterlimit="10" stroke-linecap="round"/>
<path d="M26.8031 5.09682C26.248 4.23941 26.5538 3.57885 27.0756 3.60319C28.1537 3.65315 27.193 5.18392 27.193 5.18392" stroke="#00778F" stroke-width="0.619996" stroke-miterlimit="10" stroke-linecap="round"/>
<path d="M15.6725 15.8349L15.6661 15.8366L20.8554 7.97096C21.3686 8.87192 22.5053 8.50172 23.6159 8.61188C25.4353 8.79207 26.847 8.48079 27.0276 6.66137C27.0822 6.10969 26.9981 5.5768 26.8039 5.09644L27.54 5.58449L30.3462 10.091C30.371 10.1273 30.3953 10.1636 30.4192 10.2012C30.4512 10.252 30.4816 10.3032 30.5106 10.3553L30.622 10.5346L30.6067 10.541C30.8915 11.1337 30.9854 11.7785 30.906 12.3976C30.7847 13.3472 18.9386 21.1647 18.3314 21.1647C17.2285 21.1647 16.1491 20.616 15.5163 19.6147C14.7562 18.4118 14.8638 16.908 15.6725 15.8353V15.8349Z" fill="url(#paint0_linear_5517_23462)"/>
<path d="M22.7596 9.41684C23.9399 8.20161 25.0983 10.6453 27.1901 8.5462C28.5151 7.21654 27.6658 4.74424 26.2422 4.60333C24.2426 4.40521 25.1658 6.95991 23.1721 7.57222C21.9902 7.93517 22.7601 9.41727 22.7601 9.41727L22.7596 9.41684Z" fill="url(#paint1_linear_5517_23462)"/>
<path d="M30.5909 11.2266L17.0203 20.669C16.8128 20.8134 16.7616 21.0986 16.906 21.3062L17.3327 21.9195C17.4771 22.127 17.7624 22.1782 17.9699 22.0338L31.5405 12.5915C31.748 12.4471 31.7992 12.1618 31.6548 11.9543L31.228 11.3409C31.0836 11.1334 30.7984 11.0822 30.5909 11.2266Z" fill="url(#paint2_linear_5517_23462)"/>
<path d="M21.9531 9.75908C22.4536 8.62499 22.5684 7.4657 22.5684 7.4657" stroke="#81F7E6" stroke-width="3.99112" stroke-miterlimit="10" stroke-linecap="round"/>
<path d="M21.1451 14.8317L24.4795 10.084C24.6597 9.85979 24.6243 9.53186 24.3997 9.35124L23.8946 8.94517C23.5325 8.65396 23.0026 8.71161 22.7114 9.07412L20.2557 12.7288C19.7382 13.3727 19.8407 14.3138 20.4846 14.8313L20.564 14.8949C20.7421 15.038 21.0025 15.0098 21.1456 14.8317H21.1451Z" fill="#00778F"/>
<path d="M17.2695 12.8231C17.2695 12.8231 18.8515 11.964 20.7474 13.6771" stroke="#F7F5EB" stroke-width="0.598646" stroke-miterlimit="10" stroke-linecap="round"/>
<path d="M18.1445 11.7157C18.1445 11.7157 19.7265 10.8566 21.6224 12.5697" stroke="#F7F5EB" stroke-width="0.598646" stroke-miterlimit="10" stroke-linecap="round"/>
<path d="M18.7969 10.6307C18.7969 10.6307 20.3789 9.77159 22.2747 11.4847" stroke="#F7F5EB" stroke-width="0.598646" stroke-miterlimit="10" stroke-linecap="round"/>
<path d="M19.5 9.55417C19.5 9.55417 21.082 8.69505 22.9779 10.4082" stroke="#F7F5EB" stroke-width="0.598646" stroke-miterlimit="10" stroke-linecap="round"/>
<path d="M23.4668 9.47644C27.203 10.59 25.9681 17.5701 31.9076 15.5974" stroke="#F7F5EB" stroke-width="0.598646" stroke-miterlimit="10" stroke-linecap="round"/>
<path d="M31.4727 15.7308C31.4727 15.7308 32.0568 15.6373 32.6503 15.3367" stroke="#33C9CC" stroke-width="0.598646" stroke-miterlimit="10" stroke-linecap="round"/>
<path d="M22.1029 20.6866L22.1114 20.6887L15.449 10.5903C14.7901 11.7474 13.3307 11.2718 11.9045 11.4131C9.56886 11.6445 7.75585 11.2449 7.52441 8.90922C7.45439 8.20126 7.56242 7.51679 7.81178 6.89978L6.86642 7.52661L3.26344 13.3124C3.23141 13.3589 3.20024 13.4059 3.16993 13.4537C3.12893 13.519 3.08965 13.5848 3.0525 13.6514L2.90903 13.8816L2.92867 13.8897C2.56317 14.6506 2.44275 15.4781 2.54438 16.2736C2.70023 17.4931 17.9093 27.5292 18.689 27.5292C20.1054 27.5292 21.491 26.825 22.3031 25.5389C23.2788 23.9945 23.1409 22.0641 22.1029 20.687V20.6866Z" fill="url(#paint3_linear_5517_23462)"/>
<path d="M13.0051 12.4459C11.4901 10.8853 10.0029 14.0233 7.31708 11.3281C5.61594 9.62095 6.70648 6.4471 8.53445 6.26563C11.1015 6.01114 9.91663 9.29088 12.476 10.0774C13.9936 10.5437 13.0051 12.4459 13.0051 12.4459Z" fill="url(#paint4_linear_5517_23462)"/>
<path d="M2.13185 14.9113L1.58362 15.6992C1.39829 15.9656 1.46397 16.3318 1.73033 16.5171L19.1536 28.6401C19.42 28.8255 19.7861 28.7598 19.9715 28.4934L20.5197 27.7055C20.705 27.4391 20.6393 27.073 20.373 26.8876L2.94971 14.7646C2.68335 14.5793 2.31718 14.645 2.13185 14.9113Z" fill="url(#paint5_linear_5517_23462)"/>
<path d="M14.0399 12.8855C13.3973 11.4294 13.25 9.94092 13.25 9.94092" stroke="#81F7E6" stroke-width="5.12393" stroke-miterlimit="10" stroke-linecap="round"/>
<path d="M15.4215 19.4946L10.9283 13.0969C10.6853 12.7946 10.7336 12.3527 11.0359 12.1097L11.7169 11.5623C12.205 11.1699 12.9189 11.2476 13.3113 11.7357L16.6205 16.6602C17.3178 17.5279 17.1799 18.7965 16.3122 19.4937L16.2055 19.5796C15.9655 19.7726 15.615 19.7341 15.422 19.4942L15.4215 19.4946Z" fill="#00778F"/>
<path d="M19.7142 16.642C19.7142 16.642 17.882 15.519 15.7227 17.6915" stroke="#F7F5EB" stroke-width="0.727172" stroke-miterlimit="10" stroke-linecap="round"/>
<path d="M18.7337 15.1664C18.7337 15.1664 16.9015 14.0434 14.7422 16.2159" stroke="#F7F5EB" stroke-width="0.727172" stroke-miterlimit="10" stroke-linecap="round"/>
<path d="M17.8412 13.7698C17.8412 13.7698 16.0089 12.6468 13.8496 14.8193" stroke="#F7F5EB" stroke-width="0.727172" stroke-miterlimit="10" stroke-linecap="round"/>
<path d="M16.9759 12.3785C16.9759 12.3785 15.1437 11.2555 12.9844 13.4281" stroke="#F7F5EB" stroke-width="0.727172" stroke-miterlimit="10" stroke-linecap="round"/>
<path d="M12.1887 12.3984C7.39183 13.8284 8.97768 22.7898 1.35156 20.2568" stroke="#F7F5EB" stroke-width="0.76859" stroke-miterlimit="10" stroke-linecap="round"/>
<path d="M1.70381 20.3669C1.70381 20.3669 0.990731 20.1654 0.0722656 19.6141" stroke="#33C9CC" stroke-width="0.76859" stroke-miterlimit="10" stroke-linecap="round"/>
</g>
<defs>
<linearGradient id="paint0_linear_5517_23462" x1="28.9457" y1="6.74762" x2="19.8071" y2="17.1133" gradientUnits="userSpaceOnUse">
<stop offset="0.56" stop-color="#81F7E6"/>
<stop offset="1" stop-color="#33C9CC"/>
</linearGradient>
<linearGradient id="paint1_linear_5517_23462" x1="24.7063" y1="4.06361" x2="25.5526" y2="10.41" gradientUnits="userSpaceOnUse">
<stop stop-color="#6F7772"/>
<stop offset="1" stop-color="#0F1C14"/>
</linearGradient>
<linearGradient id="paint2_linear_5517_23462" x1="32.0495" y1="10.8949" x2="24.9418" y2="16.1409" gradientUnits="userSpaceOnUse">
<stop stop-color="#33C9CC"/>
<stop offset="1" stop-color="#00778F"/>
</linearGradient>
<linearGradient id="paint3_linear_5517_23462" x1="10.331" y1="11.4054" x2="15.5771" y2="28.8362" gradientUnits="userSpaceOnUse">
<stop stop-color="#81F7E6"/>
<stop offset="1" stop-color="#33C9CC"/>
</linearGradient>
<linearGradient id="paint4_linear_5517_23462" x1="11.2241" y1="7.16231" x2="8.47381" y2="13.2124" gradientUnits="userSpaceOnUse">
<stop stop-color="#6F7772"/>
<stop offset="1" stop-color="#0F1C14"/>
</linearGradient>
<linearGradient id="paint5_linear_5517_23462" x1="1.52653" y1="14.6559" x2="12.1032" y2="22.4827" gradientUnits="userSpaceOnUse">
<stop stop-color="#33C9CC"/>
<stop offset="1" stop-color="#00778F"/>
</linearGradient>
<clipPath id="clip0_5517_23462">
<rect width="32.5787" height="32.5787" fill="white" transform="translate(0.0722656)"/>
</clipPath>
</defs>
</svg>
