<svg width="57" height="87" viewBox="0 0 57 87" fill="none" xmlns="http://www.w3.org/2000/svg">
<g opacity="0.25" clip-path="url(#clip0_4558_16008)">
<path fill-rule="evenodd" clip-rule="evenodd" d="M3.67269 41.4156C3.61383 54.538 14.258 64.7001 26.5743 65.0582C40.1428 65.4535 51.6252 54.2641 50.9127 40.2743C50.5936 33.9981 48.1438 28.6494 43.5956 24.3453C38.6986 19.711 32.8189 17.5784 26.0619 17.8603C14.3218 18.3498 3.63676 28.2455 3.67269 41.4156ZM54.5545 41.4596C54.4801 57.536 41.2741 68.8778 27.0247 68.6634C11.2754 68.4268 -0.573807 55.4295 0.0593883 40.3059C0.688247 25.2945 13.1489 13.8115 27.9342 14.2018C43.7133 14.6194 54.6933 27.5652 54.5545 41.4596ZM27.3079 83.3205L53.9578 83.3211C54.4901 83.3211 54.4894 83.3211 54.4894 83.8539V86.3334C54.4894 86.8124 54.4894 86.8136 53.9981 86.8136H0.662225C0.138693 86.8136 0.139312 86.8136 0.139312 86.3025C0.139312 85.4152 0.146127 84.528 0.134356 83.6408C0.131258 83.4072 0.196312 83.2976 0.440421 83.3199C0.560617 83.3304 0.68329 83.3211 0.804725 83.3211L27.3079 83.3205ZM9.50342 3.64749C8.84111 3.64749 8.21349 3.65803 7.58649 3.6351C7.49975 3.63262 7.37893 3.48083 7.34052 3.37427C7.03074 2.51741 6.3963 2.05893 5.52705 1.95298C4.51902 1.82969 3.66836 2.20143 3.18881 3.09546C2.45773 4.45913 2.40878 5.8897 3.14916 7.27877C3.58843 8.10341 4.32138 8.50736 5.26745 8.50736C6.15157 8.50736 6.80893 8.13315 7.19802 7.33143C7.30335 7.11582 7.39008 6.88286 7.43345 6.64867C7.47496 6.42934 7.55179 6.33269 7.78537 6.33889C8.25871 6.35252 8.73268 6.35066 9.20603 6.34013C9.48483 6.33393 9.55608 6.44483 9.52758 6.71806C9.33986 8.5086 8.02142 9.91997 6.23955 10.2186C4.58655 10.4962 3.09402 10.1721 1.87967 8.96956C1.06804 8.16536 0.661606 7.14866 0.548845 6.01299C0.411921 4.63632 0.581682 3.31603 1.35552 2.14009C2.3493 0.630212 3.81581 0.0533965 5.57352 0.130842C6.73334 0.181647 7.75253 0.573212 8.54991 1.44618C9.10504 2.05335 9.40057 2.77762 9.50342 3.64749ZM52.6617 6.62265C52.5768 6.18461 52.5316 5.78623 52.4201 5.40706C52.2547 4.84326 51.873 4.44364 51.285 4.3538C50.6141 4.25157 49.9815 4.38292 49.6271 5.04709C49.1203 5.99689 49.1265 6.98633 49.5825 7.94418C49.8563 8.51852 50.3569 8.83635 51.0217 8.81157C51.6537 8.78865 52.1159 8.46709 52.3433 7.89338C52.505 7.48446 52.5626 7.03404 52.6617 6.62265ZM52.5781 9.32953C51.5248 10.6511 49.3192 10.4138 48.4165 9.5092C47.8068 8.89831 47.4952 8.15545 47.3651 7.32338C47.1755 6.11522 47.3458 4.97956 48.0819 3.96781C49.0509 2.63636 51.1314 2.46351 52.2392 3.53411C52.2881 3.5812 52.3587 3.60474 52.4777 3.6729C52.4951 3.50561 52.5186 3.38294 52.5192 3.25965C52.5217 2.42076 52.5285 1.58186 52.5149 0.742973C52.5105 0.470364 52.6115 0.373712 52.8761 0.379907C53.3011 0.388581 53.7267 0.383625 54.1518 0.369994C54.3891 0.36256 54.5062 0.426994 54.5049 0.695886C54.4987 3.71131 54.5 6.72611 54.5043 9.74154C54.5043 9.99556 54.4027 10.0885 54.1549 10.0798C53.7903 10.0665 53.4253 10.0665 53.0607 10.0798C52.7621 10.0922 52.5898 10.0092 52.6326 9.66905C52.6437 9.58231 52.6053 9.48938 52.5781 9.32953ZM13.6886 5.82836C14.0882 5.82836 14.4884 5.81907 14.8881 5.83146C15.2028 5.84137 15.2802 5.70011 15.1842 5.42689C14.9612 4.79307 14.6799 4.26272 13.5473 4.33707C12.9265 4.37796 12.3286 4.87919 12.2177 5.48203C12.1744 5.72056 12.245 5.8296 12.4885 5.82898C12.8887 5.82651 13.2883 5.82774 13.6886 5.82898M14.7326 7.05201C14.0039 7.05201 13.2753 7.05572 12.5461 7.05015C12.2809 7.04767 12.1527 7.09538 12.2041 7.4256C12.3131 8.12695 12.6688 8.59658 13.3584 8.75829C14.0832 8.92805 14.748 8.77688 15.2257 8.17218C15.4104 7.93798 15.5956 7.86549 15.8701 7.88222C16.16 7.89957 16.4525 7.88222 16.7437 7.88718C17.0801 7.89337 17.1216 7.97454 16.9909 8.2868C16.4934 9.47265 15.603 10.1207 14.3267 10.2329C13.3763 10.3165 12.4631 10.213 11.6496 9.65418C10.7779 9.05506 10.3535 8.18271 10.2388 7.17282C10.0678 5.6648 10.452 4.34017 11.7692 3.44242C13.2933 2.40341 15.8211 2.60972 16.8038 4.63013C17.1266 5.29492 17.2684 6.00432 17.2554 6.74532C17.2511 6.97704 17.1532 7.06006 16.9184 7.05634C16.1898 7.04519 15.4612 7.05263 14.7326 7.05201ZM43.1892 5.82774C43.5783 5.82774 43.9667 5.83084 44.3552 5.82713C44.7232 5.82341 44.8044 5.73171 44.6805 5.38971C44.4593 4.78068 44.1947 4.27202 43.0448 4.33583C42.4253 4.37053 41.9079 4.80236 41.7276 5.44981C41.6446 5.74906 41.7648 5.82836 42.0238 5.82836H43.1898M44.2108 7.05201C43.494 7.05201 42.7772 7.04829 42.0603 7.05324C41.6799 7.05572 41.6465 7.12759 41.7134 7.48756C41.8435 8.18209 42.2177 8.64057 42.9215 8.77192C43.6681 8.9107 44.3112 8.72359 44.8075 8.10651C44.8967 7.99498 45.0733 7.90824 45.217 7.89585C45.5547 7.86487 45.8967 7.88346 46.2368 7.88656C46.5906 7.88966 46.6203 7.9448 46.4958 8.26449C45.9797 9.58417 44.9655 10.179 43.5993 10.2527C42.7604 10.2973 41.9562 10.1771 41.2307 9.70746C40.3906 9.16472 39.9396 8.36548 39.7779 7.41073C39.5877 6.28684 39.706 5.19517 40.421 4.25653C41.315 3.08307 42.5318 2.68283 43.9636 2.90092C46.0571 3.21937 46.8378 5.2658 46.7473 6.80604C46.7343 7.02474 46.6172 7.05634 46.4338 7.05448C45.6928 7.04829 44.9518 7.05201 44.2108 7.05201ZM33.6219 10.0767C32.6876 10.0767 32.6876 10.0767 32.6876 9.13436C32.6876 7.66352 32.6789 6.19267 32.695 4.72244C32.6981 4.40956 32.5934 4.33211 32.2985 4.33459C31.524 4.34327 31.524 4.33087 31.524 3.56943C31.524 3.01554 31.524 3.01554 32.0959 3.01616C32.1807 3.01616 32.2663 3.00996 32.3505 3.0174C32.5996 3.03908 32.6876 2.93685 32.6956 2.68159C32.7068 2.34579 32.7253 1.99573 32.8282 1.68099C33.0791 0.913973 33.6566 0.494527 34.4434 0.409027C34.8988 0.359462 35.3647 0.40531 35.8257 0.399734C36.0481 0.397255 36.1323 0.496386 36.1082 0.711994C36.0976 0.808027 36.11 0.905918 36.1057 1.00319C36.0933 1.26774 36.1658 1.60107 36.0326 1.77393C35.9335 1.90218 35.5648 1.82226 35.3158 1.83589C34.8238 1.86191 34.4564 2.41518 34.659 2.85383C34.6962 2.93438 34.8461 2.99757 34.9502 3.0081C35.1802 3.02742 35.4114 3.02908 35.6416 3.01306C35.8585 3.00067 35.9626 3.08555 35.9564 3.30426C35.9551 3.3278 35.9564 3.35258 35.957 3.37674C35.9886 4.32716 35.9886 4.34079 35.0506 4.33335C34.703 4.33087 34.6256 4.45913 34.6293 4.7844C34.6441 6.36429 34.6355 7.94418 34.6355 9.52407C34.6355 10.0761 34.6361 10.0761 34.0958 10.0767H33.6219ZM24.4498 6.64123C24.4498 5.98449 24.4393 5.32838 24.456 4.67226C24.4622 4.41266 24.3693 4.34017 24.1202 4.33583C23.2807 4.3222 23.2813 4.31353 23.2857 3.48269C23.2887 3.03165 23.3024 3.0174 23.7627 3.01616C24.5415 3.01368 24.4449 3.08307 24.4492 2.33897C24.4517 1.97405 24.4603 1.60912 24.4455 1.24544C24.4368 1.0162 24.5012 0.909636 24.7491 0.917071C25.1864 0.92889 25.624 0.92889 26.0613 0.917071C26.3091 0.911494 26.4107 1.00195 26.4021 1.25783C26.3872 1.70764 26.4107 2.15806 26.3934 2.60724C26.3816 2.90278 26.4845 3.03722 26.7899 3.01926C27.0315 3.00501 27.275 3.01926 27.5185 3.01554C27.7261 3.0112 27.8382 3.09608 27.8345 3.31541C27.8116 4.56197 28.0253 4.31477 26.9126 4.33893C26.3977 4.3507 26.3977 4.34265 26.3983 4.8668C26.3983 5.76579 26.3952 6.6654 26.4002 7.56501C26.4008 7.73353 26.4213 7.90391 26.4522 8.06995C26.5297 8.48816 26.6877 8.61393 27.1189 8.62322C27.8345 8.63809 27.8345 8.63809 27.8345 9.34192C27.8345 10.1257 27.8345 10.1591 27.0532 10.1635C26.5117 10.1659 25.9628 10.1003 25.4312 9.99308C24.847 9.87413 24.4591 9.27005 24.4511 8.57428C24.4436 7.92993 24.4492 7.28558 24.4498 6.64123ZM5.80709 74.553C5.66088 74.553 5.50723 74.5815 5.37154 74.5443C5.24515 74.509 5.08158 74.431 5.03078 74.325C4.77676 73.7965 4.4044 73.4248 3.80528 73.3585C3.07419 73.278 2.44286 73.4744 2.07979 74.1676C1.5606 75.1577 1.54139 76.175 2.09218 77.1527C2.46206 77.8095 3.0934 78.074 3.82882 77.9563C4.52645 77.8448 4.90873 77.3689 5.07849 76.6942C5.10389 76.5914 5.2563 76.46 5.36101 76.4495C5.68628 76.4173 6.01589 76.4408 6.34426 76.4346C6.56173 76.4303 6.62182 76.54 6.58651 76.7339C6.37276 77.9185 5.61379 78.9693 4.20428 79.1948C2.97754 79.3912 1.88711 79.1297 1.03334 78.17C0.35616 77.4092 0.14179 76.4879 0.175867 75.5003C0.219856 74.2073 0.69878 73.1144 1.85737 72.4601C3.30777 71.6411 5.28542 71.9762 6.11998 73.3021C6.30894 73.6026 6.40436 73.9657 6.51278 74.3095C6.52951 74.3641 6.39816 74.5202 6.31452 74.54C6.15343 74.5772 5.97686 74.5505 5.80648 74.5505L5.80709 74.553ZM20.8185 76.7079C20.7591 76.3714 20.7405 76.0877 20.6544 75.8262C20.5119 75.3975 20.2312 75.0951 19.7498 75.0375C19.2659 74.9805 18.8663 75.1373 18.6507 75.5765C18.3285 76.2308 18.313 76.9216 18.6333 77.5784C18.8074 77.9365 19.1154 78.17 19.5614 78.1762C20.0224 78.1824 20.3817 78.0176 20.5651 77.5976C20.6934 77.3045 20.7442 76.978 20.8185 76.7079ZM18.453 78.6205C18.453 79.2871 18.4382 79.8683 18.4592 80.4482C18.471 80.7834 18.3613 80.9153 18.0193 80.8695C17.8137 80.845 17.606 80.8452 17.4004 80.8701C17.1297 80.8998 17.0683 80.7747 17.0689 80.5337C17.0739 78.491 17.0751 76.4489 17.0689 74.4062C17.0677 74.1472 17.1637 74.0512 17.4159 74.0871C17.5107 74.1007 17.6098 74.0871 17.7071 74.0908C18.0404 74.1045 18.4753 73.9434 18.4121 74.6825C18.9078 74.1063 19.4313 73.9582 20.0292 73.975C21.0242 74.0035 21.8433 74.7129 22.0533 75.693C22.2262 76.5009 22.2181 77.2729 21.8718 78.0387C21.3613 79.1663 19.9158 79.5907 18.8905 78.8987C18.7727 78.8193 18.6519 78.7469 18.453 78.6205ZM20.0986 4.0719C20.4803 3.44614 21.0261 3.05581 21.733 2.89472C21.8036 2.87861 21.8743 2.85941 21.9462 2.85135C22.6054 2.7832 22.6834 2.85445 22.6834 3.51553C22.6834 3.79433 22.6698 4.07499 22.6878 4.35318C22.7039 4.61216 22.5979 4.68774 22.3489 4.69022C21.9771 4.69456 21.5806 4.6673 21.238 4.78316C20.2901 5.10161 20.0794 5.91696 20.0552 6.79303C20.0341 7.74022 20.0341 8.68778 20.0552 9.63497C20.0614 9.9652 19.9561 10.0996 19.6172 10.0817C19.2168 10.0641 18.8158 10.0633 18.4152 10.0792C18.1736 10.0866 18.0974 9.98317 18.098 9.75393C18.1024 7.61643 18.1024 5.47893 18.0986 3.34143C18.0986 3.12272 18.1519 3.00129 18.4066 3.0112C18.831 3.02793 19.2566 3.02545 19.681 3.01182C19.9109 3.00439 19.9827 3.10599 19.9778 3.31541C19.9716 3.56076 19.9759 3.8061 19.9759 4.05269L20.0986 4.0719ZM35.7575 77.03C35.7377 77.0003 35.6416 76.7841 35.589 76.794C35.0822 76.89 34.5568 76.9638 34.0884 77.1651C33.6714 77.3448 33.7352 77.9922 34.1454 78.1961C34.931 78.5876 35.7315 78.0666 35.7575 77.03ZM37.136 79.0876C36.6974 78.96 36.1082 79.372 35.6875 78.7221C35.1757 79.1725 34.5512 79.2407 33.8957 79.2134C33.0296 79.1775 32.41 78.6136 32.4069 77.7518C32.4044 76.9774 32.7799 76.4532 33.7266 76.281C34.1553 76.2029 34.5909 76.1571 35.0227 76.0933C35.4756 76.0263 35.7587 75.7977 35.7476 75.5115C35.7333 75.1336 35.4366 74.9124 34.9446 74.8975C34.5072 74.8851 34.159 74.9985 33.988 75.4551C33.9552 75.5431 33.8108 75.6348 33.7117 75.6428C33.41 75.6676 33.1051 75.6565 32.8022 75.649C32.5878 75.6447 32.5543 75.5431 32.6045 75.3349C32.7501 74.7364 33.1163 74.3529 33.6869 74.1689C34.5667 73.8857 35.4527 73.8814 36.3219 74.2048C36.8857 74.4149 37.1416 74.8529 37.1373 75.4526C37.1323 76.1205 37.136 76.7884 37.136 77.4569V79.0876ZM24.1809 76.5784L24.2156 76.5901C24.2342 76.7946 24.2441 77.0003 24.2745 77.2035C24.3451 77.6682 24.7361 78.087 25.1549 78.1601C25.7094 78.2568 26.1431 78.066 26.3971 77.5734C26.6716 77.0431 26.6567 76.4811 26.521 75.913C26.4027 75.4198 26.0235 75.0759 25.5384 75.0326C24.9715 74.9818 24.5948 75.1837 24.3903 75.7079C24.2825 75.983 24.2478 76.2872 24.1809 76.5784ZM25.417 79.2115C23.8965 79.2933 22.8123 78.2202 22.8303 76.5951C22.8476 74.9656 23.8141 73.9774 25.4256 73.9787C26.9894 73.9805 27.9882 74.9917 28.008 76.548C28.029 78.1775 26.9442 79.2846 25.417 79.2115ZM9.82126 78.1738C10.2413 78.1775 10.5821 77.9836 10.7779 77.5418C11.0375 76.9588 11.0319 76.3597 10.8373 75.7736C10.6781 75.2965 10.3237 75.0288 9.79214 75.0251C9.26861 75.022 8.90244 75.2562 8.72153 75.737C8.49601 76.3367 8.49849 76.9421 8.7649 77.5393C8.9613 77.9792 9.3002 78.1756 9.82126 78.1738ZM9.74195 79.2109C8.20729 79.2654 7.1658 78.2159 7.172 76.5976C7.17819 75.0381 8.10878 73.9489 9.81568 73.9768C11.4736 74.0047 12.3788 75.0592 12.3689 76.6187C12.359 78.2438 11.3621 79.2555 9.74195 79.2109ZM45.0603 76.5294C45.1123 76.8324 45.1427 77.0846 45.2009 77.3299C45.3106 77.7946 45.6755 78.1261 46.0974 78.1663C46.6891 78.2246 47.0646 78.0486 47.2907 77.5523C47.5695 76.9402 47.5559 76.307 47.3155 75.6843C47.1371 75.2215 46.7734 75.0319 46.2882 75.0288C45.8112 75.0251 45.4562 75.2339 45.2746 75.6602C45.1544 75.9427 45.1228 76.263 45.0603 76.5294ZM46.2498 79.2109C44.8409 79.2784 43.6396 78.2407 43.7047 76.4737C43.7586 75.0096 44.6966 73.9359 46.388 73.9731C47.901 74.0066 48.8725 75.0332 48.8799 76.6354C48.8879 78.2109 47.7709 79.3175 46.2498 79.2109ZM51.1097 74.5598C51.4914 74.3733 51.8383 74.1218 52.2218 74.0394C52.5991 73.9589 53.0248 73.9942 53.4077 74.0784C53.8693 74.1807 54.2051 74.5041 54.3048 74.9873C54.3872 75.3901 54.4504 75.8014 54.4622 76.211C54.4857 77.0486 54.4622 77.8881 54.4739 78.727C54.477 78.991 54.3946 79.1105 54.1189 79.0907C53.8883 79.0758 53.6569 79.0756 53.4263 79.0901C53.1704 79.1043 53.083 78.991 53.0855 78.7444C53.0936 77.9668 53.0942 77.188 53.0855 76.4105C53.0847 76.192 53.0589 75.9744 53.0087 75.7618C52.8817 75.2457 52.6146 75.053 52.0954 75.0679C51.6438 75.0809 51.3011 75.3727 51.2119 75.8361C51.1851 75.9916 51.1727 76.1492 51.1748 76.307C51.171 77.1093 51.1667 77.9117 51.1772 78.714C51.181 78.9767 51.0886 79.0938 50.8197 79.0895C49.5831 79.0703 49.7832 79.2456 49.7733 78.0932C49.764 76.9018 49.7795 75.7104 49.7665 74.5183C49.7628 74.1862 49.8761 74.0388 50.2132 74.0883C50.2727 74.0976 50.3346 74.0902 50.3953 74.0902C50.9722 74.0914 50.9722 74.0914 51.1097 74.5598ZM37.128 6.52847C37.128 5.50867 37.1385 4.4901 37.1218 3.4703C37.1168 3.13511 37.1961 2.97712 37.5672 3.00934C37.9285 3.04032 38.2959 3.03536 38.6577 3.00996C38.9972 2.98642 39.1025 3.11839 39.1007 3.44799C39.0908 5.41388 39.0957 7.37914 39.0957 9.34502C39.0957 10.0767 39.0957 10.0761 38.3721 10.0761C38.0809 10.0761 37.7884 10.0619 37.4985 10.0804C37.2048 10.099 37.1205 9.97202 37.1236 9.69507C37.1342 8.63933 37.128 7.58421 37.128 6.52847ZM28.7806 6.53033C28.7806 5.49752 28.7899 4.4647 28.7756 3.43251C28.7707 3.11405 28.8816 2.99571 29.1988 3.0112C29.5866 3.03041 29.9763 3.02607 30.3642 3.01244C30.6411 3.00253 30.757 3.10042 30.7557 3.38976C30.7489 5.50371 30.7496 7.61767 30.7557 9.73101C30.7557 9.98503 30.6492 10.0811 30.4069 10.078C29.9819 10.0706 29.5569 10.0708 29.1319 10.0786C28.8605 10.0848 28.775 9.96086 28.7769 9.70065C28.7855 8.64429 28.7806 7.58731 28.7806 6.53033ZM38.5226 76.6973C38.5226 76.2593 38.5102 75.8213 38.527 75.3851C38.5375 75.1162 38.4477 75.0165 38.1738 75.0239C37.7606 75.0363 37.5028 74.558 37.7463 74.211C37.8114 74.1181 38.0239 74.0933 38.1664 74.097C38.4328 74.1045 38.5443 74.0177 38.527 73.7408C38.5032 73.4501 38.5057 73.158 38.5344 72.8678C38.5455 72.7718 38.6967 72.6912 38.7853 72.6051C38.7915 72.5989 38.8095 72.6039 38.8213 72.6039C40.1322 72.6274 39.877 72.4068 39.9018 73.6231C39.9111 74.0822 39.9098 74.0815 40.3702 74.0939C40.5418 74.0989 40.8361 74.1063 40.8596 74.1813C40.9302 74.4025 40.9117 74.6596 40.885 74.8975C40.8788 74.9514 40.7004 75.0245 40.6013 75.0239C39.7667 75.0227 39.9117 75.0288 39.9042 75.7407C39.898 76.299 39.8999 76.8584 39.9042 77.4173C39.908 77.9204 40.0375 78.0684 40.5331 78.0306C40.8609 78.0052 40.9222 78.1254 40.9172 78.4154C40.9017 79.2735 40.9668 79.1483 40.1663 79.1465C39.889 79.1465 39.6126 79.1153 39.3423 79.0535C38.7866 78.9234 38.5331 78.587 38.5245 78.009C38.517 77.5715 38.5226 77.1347 38.5226 76.6973ZM14.5535 74.7996C14.8905 74.3628 15.2722 74.0673 15.7951 73.9948C16.2914 73.9266 16.375 73.9898 16.3744 74.4849V74.558C16.3744 75.2234 16.3744 75.2234 15.7313 75.2562C15.0312 75.2915 14.5275 75.8857 14.5101 76.7227C14.4963 77.3782 14.497 78.0338 14.512 78.6892C14.5182 78.9848 14.4246 79.0944 14.1167 79.0938C13.1254 79.0932 13.1254 79.1037 13.1254 78.1322C13.1254 76.9179 13.1341 75.7036 13.1192 74.4898C13.1155 74.1757 13.2022 74.0313 13.5306 74.0877C13.613 74.102 13.7004 74.0908 13.7846 74.0902C14.3621 74.0902 14.3614 74.0902 14.4575 74.6546C14.463 74.6856 14.4946 74.7129 14.5535 74.7996ZM30.2341 74.8008C30.3629 74.6837 30.4447 74.6038 30.5321 74.5326C30.7012 74.3963 30.8555 74.2215 31.0488 74.1398C31.366 74.0059 31.8096 73.7953 32.0246 74.0883C32.2018 74.33 32.1039 74.7804 32.0965 75.1379C32.0959 75.1813 31.8951 75.268 31.7991 75.2544C30.8803 75.1249 30.2304 75.8231 30.2669 76.7958C30.2911 77.439 30.2632 78.0845 30.2762 78.7276C30.2812 78.9903 30.1994 79.1112 29.9231 79.0913C29.6802 79.0777 29.4368 79.0769 29.1938 79.0889C28.9745 79.0969 28.8884 78.9959 28.889 78.7834C28.8921 77.3256 28.8921 75.8677 28.8896 74.4093C28.8896 74.1881 28.9578 74.0561 29.2068 74.0877C29.2787 74.097 29.3531 74.0902 29.4255 74.0902C30.104 74.0921 30.104 74.0921 30.2341 74.8008ZM41.6111 76.5889C41.6111 75.8727 41.618 75.1571 41.6074 74.4409C41.6037 74.1825 41.6768 74.058 41.9606 74.0846C42.2025 74.1035 42.4455 74.1035 42.6873 74.0846C42.9122 74.0704 42.9946 74.1695 42.9946 74.3808C42.9934 75.8492 42.9934 77.3175 42.9965 78.7853C42.9965 78.9978 42.9079 79.0802 42.6911 79.092C41.6111 79.1514 41.6111 79.1564 41.6111 78.0808V76.5889ZM29.7533 1.95794C28.7824 1.95918 28.7824 1.95918 28.7806 0.987081C28.7806 0.890429 28.788 0.791918 28.7781 0.695886C28.7552 0.479038 28.8456 0.381147 29.065 0.383005C29.5265 0.387342 29.9875 0.386723 30.4484 0.383005C30.6541 0.381766 30.7644 0.452397 30.7557 0.681636C30.7434 1.00906 30.7434 1.33684 30.7557 1.66427C30.7638 1.89598 30.6486 1.9629 30.4447 1.95918C30.2142 1.95484 29.9838 1.95794 29.7533 1.95794ZM38.0796 1.95918C37.1286 1.95918 37.1286 1.95918 37.1286 1.00753C37.1286 0.922647 37.1373 0.836527 37.1267 0.753505C37.0896 0.464168 37.2153 0.366277 37.4985 0.378668C37.9099 0.396016 38.3225 0.39106 38.7339 0.380527C38.9904 0.374331 39.1174 0.456114 39.0994 0.735538C39.0815 1.02487 39.0815 1.31793 39.0994 1.60727C39.1168 1.88669 38.9898 1.97405 38.7339 1.96166C38.5158 1.95112 38.2977 1.95918 38.0796 1.95918ZM42.2183 72.2011C43.0423 72.2173 42.994 72.0252 42.9971 73.0599C42.9977 73.255 42.9383 73.3566 42.7295 73.3511C42.4383 73.3449 42.1471 73.3498 41.8553 73.3492C41.8187 73.3492 41.7698 73.3585 41.7487 73.3387C41.4563 73.0741 41.6613 72.7321 41.6291 72.4279C41.6223 72.3629 41.7945 72.2439 41.903 72.2098C42.0244 72.1714 42.1669 72.2011 42.2183 72.2011ZM56.376 71.9701H56.5644V72.9106H56.376V72.4068L56.0712 72.9106H55.969L55.6877 72.4068V72.9106H55.508L55.4776 71.9701H55.6877L56.021 72.6045L56.376 71.9701ZM54.8283 72.8913V72.1274H54.4368V72.006H55.3711C55.3696 72.0464 55.3696 72.087 55.3711 72.1274H55.0068V72.8913H54.8283Z" fill="#F7F5EB"/>
<path fill-rule="evenodd" clip-rule="evenodd" d="M25.2117 29.4236V29.4031C23.6448 29.4031 22.0779 29.4137 20.511 29.3957C20.1405 29.3914 20.0389 29.506 20.0401 29.8728C20.0544 32.8256 20.0482 35.7784 20.0482 38.7313C20.0482 39.2313 20.0556 39.24 20.5562 39.24C23.0345 39.2406 25.5128 39.2412 27.9904 39.24C29.1936 39.24 30.3943 39.1991 31.5591 38.8571C32.7982 38.4934 33.8602 37.8825 34.4419 36.6564C35.0243 35.4303 35.0299 34.1509 34.7765 32.8479C34.5144 31.4942 33.771 30.4898 32.4866 30.0128C31.6688 29.7092 30.7797 29.4985 29.9111 29.449C28.3498 29.3598 26.7785 29.4236 25.2117 29.4236ZM25.8015 53.4515C27.2711 53.4515 28.7413 53.4392 30.2109 53.4565C31.0312 53.4658 31.8305 53.3865 32.6148 53.1337C33.8137 52.7471 34.7852 52.0619 35.4301 50.9708C36.1742 49.7125 36.3768 48.3513 36.1488 46.9089C35.9382 45.5732 35.3087 44.5261 34.1507 43.8105C32.9029 43.0391 31.5139 42.7752 30.0802 42.7634C26.8857 42.7386 23.69 42.7597 20.4955 42.7504C20.1424 42.7492 20.0401 42.8688 20.0414 43.217C20.0525 46.474 20.0538 49.7304 20.0401 52.9875C20.0383 53.3629 20.1541 53.4621 20.5166 53.4584C22.278 53.4429 24.0394 53.4515 25.8015 53.4515ZM34.5113 40.4933C35.0869 40.6959 35.595 40.849 36.0832 41.051C37.9828 41.8366 39.3142 43.1884 39.9208 45.1593C40.9926 48.64 40.3235 51.7657 37.7882 54.4094C36.5925 55.6578 35.0708 56.4044 33.367 56.6931C32.4231 56.8517 31.4679 56.9336 30.5108 56.9378C25.8064 56.962 21.1027 56.949 16.399 56.9484C15.8711 56.9484 15.8711 56.9484 15.8711 56.436V26.3449C15.8711 25.8481 15.8711 25.8487 16.3717 25.8487C19.8846 25.8487 23.3976 25.8313 26.9105 25.8561C28.5115 25.8679 30.1155 25.9144 31.7121 26.037C32.9903 26.1355 34.2722 26.3307 35.4085 27.0054C37.0255 27.9651 38.1773 29.3182 38.7101 31.1354C39.3954 33.4712 39.1872 35.7153 37.852 37.7945C37.0962 38.9729 36.0088 39.7709 34.7523 40.3539C34.6904 40.3831 34.634 40.4221 34.5113 40.4933Z" fill="#F7F5EB"/>
</g>
<defs>
<clipPath id="clip0_4558_16008">
<rect width="57" height="86.7391" fill="white" transform="translate(0 0.0761719)"/>
</clipPath>
</defs>
</svg>
