<svg width="34" height="34" viewBox="0 0 34 34" fill="none" xmlns="http://www.w3.org/2000/svg">
<g clip-path="url(#clip0_5517_23335)">
<path d="M37.832 23.6715C37.6603 23.7686 27.5371 24.6056 20.9605 23.2299" stroke="#00BF5D" stroke-width="4.21782" stroke-miterlimit="10" stroke-linecap="round"/>
<path d="M13.0357 24.4882C13.1427 24.4171 13.249 24.3489 13.3556 24.283C13.1505 24.2109 12.9742 24.0574 12.8788 23.8426C12.696 23.4295 12.8825 22.9461 13.2961 22.7628C14.1506 22.3844 14.982 22.1024 15.7857 21.9164C15.7649 21.8723 15.7471 21.8266 15.7338 21.778C15.6159 21.3417 15.8739 20.8924 16.3102 20.7746C18.6874 20.1323 20.6423 20.8656 21.4575 21.2632C22.4767 21.6736 23.1554 22.7116 23.0594 23.8638C22.9413 25.2798 21.6977 26.3321 20.2817 26.2141C19.7138 26.1668 19.2043 25.9381 18.8053 25.5897C18.7964 25.5904 18.7874 25.5911 18.7783 25.5922C17.4319 25.7222 16.1483 26.188 14.9633 26.9766C14.8035 27.0832 14.6198 27.1258 14.4424 27.111C14.2018 27.0909 13.9725 26.9651 13.8287 26.749C13.6616 26.4976 13.6521 26.1878 13.7762 25.9348C13.6611 25.9784 13.5398 25.9946 13.4212 25.9847C13.1807 25.9647 12.9513 25.8388 12.8076 25.6227C12.5573 25.2463 12.6593 24.7385 13.0352 24.4881L13.0357 24.4882Z" fill="#00BF5D"/>
<path d="M13.4233 24.2392C14.2116 24.4525 15.3419 23.3212 16.9053 23.2173" stroke="#00804C" stroke-width="0.163558" stroke-miterlimit="10" stroke-linecap="round"/>
<path d="M13.6606 25.5713C14.4489 25.7847 15.5792 24.6533 17.1426 24.5494" stroke="#00804C" stroke-width="0.163558" stroke-miterlimit="10" stroke-linecap="round"/>
<path d="M15.8643 21.8842C16.4577 22.3653 17.4535 21.8153 18.7515 22.1248" stroke="#00804C" stroke-width="0.163558" stroke-miterlimit="10" stroke-linecap="round"/>
<path d="M20.9299 25.9841C20.9299 25.9841 27.1669 24.7068 37.8624 26.7766" stroke="#19F578" stroke-width="4.37421" stroke-miterlimit="10" stroke-linecap="round"/>
<path d="M12.7726 25.324C12.8112 24.8607 13.218 24.5165 13.6813 24.5551C13.9152 24.5746 14.1188 24.6884 14.2582 24.8557C14.2937 24.7002 14.3751 24.5532 14.5014 24.4372C14.8339 24.1315 15.3518 24.153 15.658 24.4856C16.0206 24.8798 16.4596 25.1704 16.9681 25.3557C16.9633 25.3116 16.9609 25.2667 16.9638 25.2209C16.9891 24.7696 17.3753 24.4242 17.8266 24.4496C18.2071 24.4709 18.78 24.3169 19.3337 24.1679C20.3858 23.8855 21.4734 23.5933 22.3321 24.1182C22.7836 24.3943 23.0787 24.8431 23.2089 25.4526C23.3627 26.1698 23.1478 26.8696 22.6045 27.4234C21.9174 28.1242 20.8835 28.4373 20.1378 28.5769C19.4322 28.7091 18.6684 28.7432 17.9193 28.6808C17.6167 28.6556 17.3163 28.6146 17.0233 28.5577C15.5961 28.2807 14.465 27.7341 13.6618 26.933C13.0322 26.3054 12.8373 25.7437 12.8043 25.637L12.8063 25.6362C12.7764 25.5378 12.764 25.4324 12.773 25.324L12.7726 25.324Z" fill="#19F578"/>
<path d="M14.2102 24.899C14.1629 25.4665 14.8732 26.8297 16.8709 27.2586" stroke="#00BF5D" stroke-width="0.163558" stroke-miterlimit="10" stroke-linecap="round"/>
<path d="M16.9298 25.4182C17.1553 25.9956 18.5244 26.4455 20.332 25.6232" stroke="#00BF5D" stroke-width="0.163558" stroke-miterlimit="10" stroke-linecap="round"/>
<path d="M8.27441 12.6715C8.27441 12.6715 2.78798 19.6472 -4.50786 14.9438" stroke="#19F578" stroke-width="4.83209" stroke-miterlimit="10" stroke-linecap="round"/>
<path d="M11.4674 15.9237C12.542 16.124 13.6191 15.8682 14.4836 15.1948C15.0523 14.7514 15.1538 13.9314 14.711 13.3623C14.2676 12.7936 13.4476 12.6921 12.8785 13.1348C12.4613 13.4596 12.0097 13.3863 11.7774 13.3141C11.2014 13.1341 10.7291 12.6151 10.513 11.9255C10.2977 11.2376 9.5652 10.8543 8.87681 11.0695C8.18895 11.2848 7.80557 12.0172 8.02078 12.7056C8.49251 14.2124 9.60519 15.3718 10.9987 15.8068C11.1545 15.8555 11.3106 15.8945 11.4674 15.9237Z" fill="url(#paint0_radial_5517_23335)"/>
<path d="M21.084 16.8869L20.3145 17.7059C19.685 18.3763 18.7757 18.7866 17.72 18.7866C15.5183 18.7866 13.5115 17.0017 13.2372 14.8001C13.0947 13.6541 13.4494 12.6213 14.1329 11.8943L14.9023 11.0753C14.2189 11.8023 13.8641 12.8357 14.0067 13.9811C14.2809 16.1828 16.2878 17.9676 18.4894 17.9676C19.5456 17.9676 20.4544 17.5573 21.084 16.8869Z" fill="url(#paint1_linear_5517_23335)"/>
<path d="M17.4961 9.99475C19.6977 9.99475 21.7046 11.7801 21.9788 13.9818C22.2531 16.1835 20.6903 17.9683 18.4886 17.9683C16.2869 17.9683 14.2801 16.1835 14.0058 13.9818C13.7316 11.7801 15.2944 9.99475 17.4961 9.99475ZM19.6482 13.9666C20.2321 13.9083 20.4182 13.5301 20.3578 13.0458C20.3045 12.6192 20.0329 12.3863 19.5775 12.3863H19.1993L19.1215 13.0072H19.3255C19.5579 13.0072 19.6841 13.0845 19.7081 13.2782C19.7369 13.5111 19.5856 13.695 19.2172 13.695H19.0328L18.968 14.2669H19.1623C19.3946 14.2669 19.522 14.3545 19.5459 14.5483C19.5747 14.7812 19.4235 14.9651 19.0545 14.9651H18.4244L18.3455 15.5756H19.1987C20.0128 15.5756 20.3088 15.149 20.2403 14.5962C20.2005 14.2762 20.0286 14.0634 19.6439 14.0144L19.6477 13.966L19.6482 13.9666ZM18.1131 15.5756L18.2802 14.2669H18.7357L18.8004 13.695H18.345L18.4336 13.0072H18.8891L18.9669 12.3863H17.4155L17.3377 13.0072H17.8035L17.7143 13.695H17.249L17.1843 14.2669H17.6495L17.483 15.5756H18.1131ZM17.2507 15.5756L17.3296 14.9651H16.6602C16.4279 14.9651 16.3027 14.8971 16.2788 14.7034C16.2499 14.471 16.399 14.2669 16.7674 14.2669H16.9514L17.0161 13.695H16.8219C16.5895 13.695 16.4643 13.6276 16.4404 13.4338C16.4116 13.2009 16.5617 13.0072 16.9301 13.0072H17.1048L17.1826 12.3863H16.7849C15.9708 12.3863 15.6769 12.8325 15.7455 13.3849C15.7852 13.7048 15.9561 13.9083 16.3419 13.9666L16.337 14.0052C15.7531 14.0634 15.5681 14.4514 15.6285 14.9363C15.6818 15.3629 15.9507 15.5762 16.4061 15.5762H17.2496L17.2507 15.5756Z" fill="url(#paint2_linear_5517_23335)"/>
<path d="M19.5784 12.3862C20.0339 12.3862 20.3054 12.6191 20.3588 13.0458C20.4192 13.5306 20.2331 13.9088 19.6492 13.9665L19.6454 14.0149C20.0295 14.0639 20.2015 14.2766 20.2418 14.5966C20.3103 15.1495 20.0143 15.5761 19.2002 15.5761H18.347L18.4259 14.9655H19.056C19.4244 14.9655 19.5763 14.7816 19.5474 14.5487C19.5235 14.355 19.3961 14.2674 19.1638 14.2674H18.9695L19.0343 13.6955H19.2187C19.5871 13.6955 19.7384 13.5115 19.7096 13.2786C19.6856 13.0849 19.5594 13.0077 19.327 13.0077H19.123L19.2008 12.3868H19.579L19.5784 12.3862ZM17.4165 12.3862L17.3387 13.0071H17.8045L17.7152 13.6949H17.25L17.1852 14.2668H17.6505L17.484 15.5755H18.1141L18.2812 14.2668H18.7366L18.8014 13.6949H18.3459L18.4346 13.0071H18.8901L18.9679 12.3862H17.4165ZM16.7864 12.3862C15.9723 12.3862 15.6785 12.8324 15.747 13.3848C15.7867 13.7047 15.9576 13.9082 16.3434 13.9665L16.3385 14.0051C15.7546 14.0633 15.5696 14.4513 15.63 14.9362C15.6833 15.3628 15.9522 15.5761 16.4076 15.5761H17.2511L17.33 14.9655H16.6607C16.4283 14.9655 16.3031 14.8975 16.2792 14.7038C16.2504 14.4714 16.3995 14.2674 16.7679 14.2674H16.9518L17.0165 13.6955H16.8223C16.5899 13.6955 16.4648 13.628 16.4408 13.4343C16.412 13.2014 16.5622 13.0077 16.9306 13.0077H17.1052L17.183 12.3868H16.7853L16.7864 12.3862Z" fill="url(#paint3_linear_5517_23335)"/>
<path d="M6.5208 11.0531C7.00012 10.4974 7.33546 9.8909 7.69107 9.24883C8.78411 7.2729 10.0234 5.03368 15.2858 4.9179C16.0071 4.9016 16.6038 5.47378 16.6197 6.19438C16.6323 6.7598 16.2834 7.24856 15.7844 7.44118C16.0296 7.61087 16.2724 7.80302 16.5136 8.01784C17.0516 8.49823 17.0977 9.32331 16.6173 9.86129C16.4158 10.0864 16.1546 10.2251 15.8786 10.2758C16.0467 10.584 16.1748 10.9164 16.2573 11.2682C16.4213 11.9706 15.9851 12.6724 15.2833 12.8366C14.581 13.0006 13.8791 12.5644 13.715 11.8626C13.5087 10.9798 12.5983 10.69 11.8399 10.7944C11.4083 10.8538 11.0109 11.2128 10.851 11.6871C10.7407 12.015 10.7082 12.5059 11.1821 12.9814C11.691 13.4919 11.6897 14.3191 11.1787 14.8279C10.8622 15.143 10.4249 15.2625 10.0169 15.1864C9.76616 15.1397 9.52649 15.0191 9.33228 14.8245C8.79533 14.2859 8.43795 13.6453 8.27337 12.9636C7.97993 13.1754 7.61533 13.2533 7.26909 13.1887C7.05005 13.1479 6.83837 13.05 6.6572 12.8939C6.11092 12.4229 6.04988 11.5988 6.5209 11.0526L6.5208 11.0531Z" fill="url(#paint4_radial_5517_23335)"/>
<path d="M15.8378 10.195C15.8378 10.195 14.8976 8.0897 12.5967 8.2163" stroke="#00BF5D" stroke-width="0.228719" stroke-miterlimit="10" stroke-linecap="round"/>
<path d="M15.7174 7.35743C15.7174 7.35743 13.9032 5.94773 11.5462 7.09223" stroke="#00BF5D" stroke-width="0.228719" stroke-miterlimit="10" stroke-linecap="round"/>
<path d="M17.5236 23.3698C22.4187 23.3698 26.387 19.4015 26.387 14.5064C26.387 9.61123 22.4187 5.64294 17.5236 5.64294C12.6284 5.64294 8.66016 9.61123 8.66016 14.5064C8.66016 19.4015 12.6284 23.3698 17.5236 23.3698Z" fill="url(#paint5_radial_5517_23335)"/>
</g>
<defs>
<radialGradient id="paint0_radial_5517_23335" cx="0" cy="0" r="1" gradientUnits="userSpaceOnUse" gradientTransform="translate(15.7998 14.2752) rotate(-166.393) scale(6.16072 6.16072)">
<stop stop-color="#E8FB10"/>
<stop offset="1" stop-color="#19F578"/>
</radialGradient>
<linearGradient id="paint1_linear_5517_23335" x1="13.3754" y1="11.182" x2="19.1446" y2="18.9999" gradientUnits="userSpaceOnUse">
<stop stop-color="#B65200"/>
<stop offset="0.05" stop-color="#BA6301"/>
<stop offset="0.2" stop-color="#C58F04"/>
<stop offset="0.33" stop-color="#CDAF06"/>
<stop offset="0.45" stop-color="#D2C307"/>
<stop offset="0.52" stop-color="#D4CA08"/>
<stop offset="0.6" stop-color="#D1BE07"/>
<stop offset="0.73" stop-color="#C9A005"/>
<stop offset="0.9" stop-color="#BD7002"/>
<stop offset="1" stop-color="#B65200"/>
</linearGradient>
<linearGradient id="paint2_linear_5517_23335" x1="20.0601" y1="10.195" x2="16.232" y2="17.2043" gradientUnits="userSpaceOnUse">
<stop offset="0.11" stop-color="#F1F5BF"/>
<stop offset="0.17" stop-color="#F0F4B7"/>
<stop offset="0.27" stop-color="#EEF4A3"/>
<stop offset="0.39" stop-color="#EBF482"/>
<stop offset="0.52" stop-color="#E7F455"/>
<stop offset="0.67" stop-color="#E2F41B"/>
<stop offset="0.69" stop-color="#E1F410"/>
</linearGradient>
<linearGradient id="paint3_linear_5517_23335" x1="20.2695" y1="11.6195" x2="16.2253" y2="15.8253" gradientUnits="userSpaceOnUse">
<stop stop-color="#D4CA08"/>
<stop offset="1" stop-color="#B65200"/>
</linearGradient>
<radialGradient id="paint4_radial_5517_23335" cx="0" cy="0" r="1" gradientUnits="userSpaceOnUse" gradientTransform="translate(16.9383 12.34) rotate(-144.378) scale(8.07747)">
<stop offset="0.07" stop-color="#E6FA10"/>
<stop offset="1" stop-color="#19F578"/>
</radialGradient>
<radialGradient id="paint5_radial_5517_23335" cx="0" cy="0" r="1" gradientUnits="userSpaceOnUse" gradientTransform="translate(17.4645 14.5971) scale(10.2641 10.2641)">
<stop offset="0.68" stop-color="#D1EDD7" stop-opacity="0"/>
<stop offset="0.73" stop-color="#D1EDD7" stop-opacity="0.25"/>
<stop offset="0.81" stop-color="#D1EDD7" stop-opacity="0.57"/>
<stop offset="0.87" stop-color="#D1EDD7" stop-opacity="0.8"/>
<stop offset="0.92" stop-color="#D1EDD7" stop-opacity="0.95"/>
<stop offset="0.94" stop-color="#D1EDD7"/>
</radialGradient>
<clipPath id="clip0_5517_23335">
<rect width="33.5861" height="33.5861" fill="white" transform="translate(0.015625)"/>
</clipPath>
</defs>
</svg>
