<svg width="37" height="37" viewBox="0 0 37 37" fill="none" xmlns="http://www.w3.org/2000/svg">
<path d="M18.25 36.75C28.3292 36.75 36.5 28.5792 36.5 18.5C36.5 8.4208 28.3292 0.25 18.25 0.25C8.1708 0.25 0 8.4208 0 18.5C0 28.5792 8.1708 36.75 18.25 36.75Z" fill="#E8FB10" fill-opacity="0.08"/>
<path d="M18.25 36.75C28.3292 36.75 36.5 28.5792 36.5 18.5C36.5 8.4208 28.3292 0.25 18.25 0.25C8.1708 0.25 0 8.4208 0 18.5C0 28.5792 8.1708 36.75 18.25 36.75Z" fill="url(#paint0_radial_4980_67861)"/>
<path d="M18.25 36.75C28.3292 36.75 36.5 28.5792 36.5 18.5C36.5 8.4208 28.3292 0.25 18.25 0.25C8.1708 0.25 0 8.4208 0 18.5C0 28.5792 8.1708 36.75 18.25 36.75Z" fill="url(#paint1_radial_4980_67861)"/>
<rect x="5.11035" y="13.3223" width="23.6899" height="14.6877" rx="2.28719" transform="rotate(-8.6965 5.11035 13.3223)" fill="#0F1C14" stroke="url(#paint2_linear_4980_67861)"/>
<path d="M10.2354 14.648C8.61984 14.8951 7.66532 16.2322 7.88486 17.6674C8.10439 19.1027 9.41495 20.0933 11.0305 19.8462C12.6461 19.599 13.6007 18.262 13.3811 16.8267C13.1616 15.3915 11.851 14.4009 10.2354 14.648ZM10.9607 19.3893C9.61683 19.5948 8.54814 18.7718 8.36792 17.5935C8.18769 16.4153 8.96118 15.3105 10.3053 15.1049C11.6495 14.8993 12.7178 15.7224 12.8981 16.9006C13.0783 18.0789 12.3048 19.1837 10.9607 19.3893Z" fill="white"/>
<path d="M9.31013 17.9911C9.28393 17.8199 9.39684 17.6489 9.68387 17.605L9.82738 17.5831L9.86859 17.1456L9.71744 17.1687C9.53637 17.1964 9.43804 17.1603 9.41617 17.0173C9.38998 16.8461 9.50399 16.6824 9.79102 16.6384L9.9269 16.6177L9.97794 16.1423L9.66831 16.1897C9.0341 16.2867 8.81257 16.6566 8.87485 17.0638C8.9109 17.2994 9.0471 17.432 9.34804 17.43L9.34478 17.4597C8.89085 17.5729 8.75316 17.8863 8.80781 18.2435C8.85587 18.5577 9.0686 18.6859 9.42342 18.6317L10.0802 18.5312L10.1323 18.0628L9.61139 18.1425C9.43032 18.1702 9.33199 18.1341 9.31013 17.9911Z" fill="white"/>
<path d="M11.2158 17.3707L11.257 16.9332L10.9021 16.9875L10.9605 16.4599L11.3153 16.4056L11.3663 15.93L10.1583 16.1147L10.1074 16.5904L10.4698 16.5349L10.4114 17.0625L10.049 17.118L10.0078 17.5555L10.3702 17.5L10.2609 18.5033L10.7516 18.4282L10.8609 17.425L11.2158 17.3707Z" fill="white"/>
<path d="M12.4597 16.2595C12.4117 15.9453 12.1968 15.8029 11.842 15.8572L11.5476 15.9022L11.4966 16.3776L11.655 16.3533C11.8361 16.3256 11.9356 16.369 11.9574 16.5116C11.9836 16.6829 11.8685 16.8394 11.5814 16.8833L11.4379 16.9052L11.3967 17.3427L11.5479 17.3196C11.7289 17.2919 11.8295 17.3424 11.8513 17.4851C11.8775 17.6564 11.7624 17.8129 11.4753 17.8568L10.9846 17.9318L10.9325 18.4003L11.597 18.2986C12.2312 18.2016 12.4549 17.8458 12.3927 17.4389C12.3566 17.2033 12.2193 17.0635 11.9195 17.0727L11.9216 17.0358C12.3755 16.9226 12.5143 16.6162 12.4597 16.2592L12.4597 16.2595Z" fill="white"/>
<path d="M6.60651 23.1067C6.77935 24.1805 7.25386 27.5268 7.29756 27.8125L30.7427 24.2264C30.698 23.1101 29.3172 14.9068 29.2487 14.459C19.9429 12.8639 19.419 20.6163 14.1055 24.23C10.8251 26.4611 8.06359 24.9432 6.60651 23.1067Z" fill="url(#paint3_linear_4980_67861)"/>
<circle cx="24.5147" cy="21.7059" r="1.59034" transform="rotate(-8.6965 24.5147 21.7059)" fill="#C80020"/>
<circle cx="26.6104" cy="21.3848" r="1.59034" transform="rotate(-8.6965 26.6104 21.3848)" fill="#E09C2F"/>
<path fill-rule="evenodd" clip-rule="evenodd" d="M25.7496 22.7662C26.0275 22.4291 26.1662 21.9796 26.0949 21.5137C26.0237 21.0482 25.7574 20.6609 25.3918 20.4222C25.1139 20.7593 24.9752 21.2088 25.0465 21.6747C25.1177 22.1403 25.384 22.5276 25.7496 22.7662Z" fill="#DE5F16"/>
<defs>
<radialGradient id="paint0_radial_4980_67861" cx="0" cy="0" r="1" gradientUnits="userSpaceOnUse" gradientTransform="translate(19.2003 16.6726) rotate(131.433) scale(27.6894)">
<stop offset="0.566137" stop-color="#19F578" stop-opacity="0"/>
<stop offset="1" stop-color="#19F578"/>
</radialGradient>
<radialGradient id="paint1_radial_4980_67861" cx="0" cy="0" r="1" gradientUnits="userSpaceOnUse" gradientTransform="translate(12.8652 23.3975) rotate(-48.9219) scale(29.2203)">
<stop offset="0.566137" stop-color="#E8FB10" stop-opacity="0"/>
<stop offset="1" stop-color="#E8FB10"/>
</radialGradient>
<linearGradient id="paint2_linear_4980_67861" x1="2.11506" y1="30.3912" x2="33.7457" y2="9.45236" gradientUnits="userSpaceOnUse">
<stop stop-color="#0F1C14"/>
<stop offset="1" stop-color="#19F578"/>
</linearGradient>
<linearGradient id="paint3_linear_4980_67861" x1="26.5489" y1="38.7342" x2="16.0408" y2="16.6288" gradientUnits="userSpaceOnUse">
<stop offset="0.62" stop-color="#19F578" stop-opacity="0"/>
<stop offset="0.68" stop-color="#19F578" stop-opacity="0.01"/>
<stop offset="0.73" stop-color="#19F578" stop-opacity="0.05"/>
<stop offset="0.78" stop-color="#19F578" stop-opacity="0.12"/>
<stop offset="0.82" stop-color="#19F578" stop-opacity="0.22"/>
<stop offset="0.86" stop-color="#19F578" stop-opacity="0.35"/>
<stop offset="0.91" stop-color="#19F578" stop-opacity="0.5"/>
<stop offset="0.94" stop-color="#19F578" stop-opacity="0.68"/>
<stop offset="0.98" stop-color="#19F578" stop-opacity="0.89"/>
<stop offset="1" stop-color="#19F578"/>
</linearGradient>
</defs>
</svg>
