<svg width="34" height="34" viewBox="0 0 34 34" fill="none" xmlns="http://www.w3.org/2000/svg">
<g clip-path="url(#clip0_5517_23433)">
<path d="M0.0169146 12.1052L4.38513 28.9842C4.49765 29.4188 4.85138 29.7482 5.29224 29.8302L16.2266 31.8533L16.3097 32.1736C16.4107 32.5648 16.81 32.7997 17.2013 32.6987L18.3946 32.39L18.1286 31.3617L13.4349 13.2258L0.657432 11.389C0.249463 11.3302 -0.0863761 11.7058 0.0169146 12.1046V12.1052Z" fill="#00778F"/>
<path d="M17.9009 30.489L5.73969 28.223L0.775391 9.0415L13.0808 11.8656L17.9009 30.489Z" fill="#E2E0D9"/>
<path d="M6.04958 24.0942C8.76226 31.8318 14.423 23.9534 17.902 30.4908L13.0826 11.8673C10.0479 5.36457 5.62545 12.4287 1.23242 5.47998L6.04958 24.0937V24.0942Z" fill="white"/>
<path d="M27.8286 6.91112C28.2198 6.81014 28.6185 7.04499 28.7201 7.43623L33.0473 24.156C33.1483 24.5473 32.9135 24.946 32.5222 25.0476L20.0189 30.8728L20.1019 31.1931C20.2029 31.5843 19.9681 31.9831 19.5768 32.0846L18.3835 32.3933L18.1175 31.365L13.4238 13.2292L27.8291 6.9117L27.8286 6.91112Z" fill="#00778F"/>
<path d="M17.8917 30.4925L31.4684 24.186L26.5041 5.00391L13.0723 11.869L17.8917 30.4925Z" fill="#E2E0D9"/>
<path d="M29.503 22.3638C27.5451 28.4718 18.2616 24.0419 17.8917 30.4909L13.0723 11.8674C13.7272 5.50035 23.077 9.81317 24.8324 3.73633L29.5036 22.3638H29.503Z" fill="white"/>
<path d="M13.0723 11.8707L17.9027 30.3425" stroke="#E2E0D9" stroke-width="0.260993" stroke-linecap="round" stroke-linejoin="round"/>
<path d="M15.9531 11.0329L18.2065 19.6262L25.1454 17.2061L22.9711 9.0415L15.9531 11.0329Z" fill="#E2E0D9"/>
<path d="M25.7986 15.6475L18.3715 18.3867C16.7945 14.9654 15.9531 11.0335 15.9531 11.0335L22.9711 9.0415C22.9711 9.0415 23.7022 12.9204 25.7981 15.6475H25.7986Z" fill="url(#paint0_linear_5517_23433)"/>
<path d="M26.616 21.823C24.4434 24.9869 20.2887 22.3568 18.4531 25.5201" stroke="#E2E0D9" stroke-width="0.260993" stroke-linecap="round" stroke-linejoin="round"/>
<path d="M26.1218 20.0391C23.9493 23.203 19.7946 20.5728 17.959 23.7362" stroke="#E2E0D9" stroke-width="0.260993" stroke-linecap="round" stroke-linejoin="round"/>
<path d="M25.7957 18.2974C23.6231 21.4613 19.4684 18.8311 17.6328 21.9945" stroke="#E2E0D9" stroke-width="0.260993" stroke-linecap="round" stroke-linejoin="round"/>
<path d="M15.4866 25.7664C13.3302 22.8697 10.5772 26.3002 7.77734 23.1796" stroke="#E2E0D9" stroke-width="0.260993" stroke-linecap="round" stroke-linejoin="round"/>
<path d="M14.8773 23.6903C12.7209 20.7935 9.96778 24.224 7.16797 21.1034" stroke="#E2E0D9" stroke-width="0.260993" stroke-linecap="round" stroke-linejoin="round"/>
<path d="M14.2698 21.6142C12.1134 18.7175 9.36036 22.148 6.56055 19.0273" stroke="#E2E0D9" stroke-width="0.260993" stroke-linecap="round" stroke-linejoin="round"/>
<path d="M13.6585 19.5339C11.5021 16.6371 8.74903 20.0677 5.94922 16.947" stroke="#E2E0D9" stroke-width="0.260993" stroke-linecap="round" stroke-linejoin="round"/>
<path d="M13.0452 17.4585C10.8888 14.5617 8.13575 17.9922 5.33594 14.8716" stroke="#E2E0D9" stroke-width="0.260993" stroke-linecap="round" stroke-linejoin="round"/>
<path d="M12.4378 15.3825C10.2814 12.4858 7.52833 15.9163 4.72852 12.7957" stroke="#E2E0D9" stroke-width="0.260993" stroke-linecap="round" stroke-linejoin="round"/>
<path d="M11.8265 13.3047C9.67007 10.4079 6.917 13.8384 4.11719 10.7178" stroke="#E2E0D9" stroke-width="0.260993" stroke-linecap="round" stroke-linejoin="round"/>
<path d="M18.2399 9.24169L19.6225 11.42C19.7102 11.5522 19.5734 11.7287 19.4246 11.6785L16.9623 10.9082C16.3732 10.7235 16.0448 10.0963 16.2289 9.50713C16.5082 8.60002 17.7425 8.44595 18.2399 9.24169Z" fill="url(#paint1_linear_5517_23433)"/>
<path d="M17.0719 9.66132L11.4238 5.33984" stroke="url(#paint2_linear_5517_23433)" stroke-width="2.22146" stroke-miterlimit="10" stroke-linecap="round"/>
<path d="M11.4296 5.3402L8.4082 3.02856" stroke="#CCB90A" stroke-width="2.22146" stroke-miterlimit="10" stroke-linecap="round"/>
<path d="M8.40663 3.02848L7.6582 2.45605" stroke="#6F7772" stroke-width="2.22146" stroke-miterlimit="10" stroke-linecap="round"/>
<path d="M7.01679 1.94693L5.73633 0.955566" stroke="#0F1C14" stroke-width="1.11101" stroke-linecap="round" stroke-linejoin="round"/>
<path d="M9.40055 4.85315L8.72656 5.78046L12.52 8.69395" stroke="#3F4943" stroke-width="0.555503" stroke-linecap="round" stroke-linejoin="round"/>
<path d="M5.73378 1.52371C6.05598 1.52371 6.31717 1.26252 6.31717 0.940324C6.31717 0.618126 6.05598 0.356934 5.73378 0.356934C5.41158 0.356934 5.15039 0.618126 5.15039 0.940324C5.15039 1.26252 5.41158 1.52371 5.73378 1.52371Z" fill="#3F4943"/>
</g>
<defs>
<linearGradient id="paint0_linear_5517_23433" x1="19.731" y1="9.13412" x2="21.9892" y2="17.5503" gradientUnits="userSpaceOnUse">
<stop stop-color="#AFF3E9"/>
<stop offset="1" stop-color="#33C9CC"/>
</linearGradient>
<linearGradient id="paint1_linear_5517_23433" x1="19.2029" y1="9.9367" x2="17.9139" y2="11.6873" gradientUnits="userSpaceOnUse">
<stop offset="0.291667" stop-color="#B9B8B0"/>
<stop offset="1" stop-color="#6F7772"/>
</linearGradient>
<linearGradient id="paint2_linear_5517_23433" x1="15.0695" y1="6.3036" x2="13.624" y2="8.94676" gradientUnits="userSpaceOnUse">
<stop stop-color="#E8FB10"/>
<stop offset="1" stop-color="#E6D200"/>
</linearGradient>
<clipPath id="clip0_5517_23433">
<rect width="33.0719" height="33.0719" fill="white"/>
</clipPath>
</defs>
</svg>
