<svg width="38" height="37" viewBox="0 0 38 37" fill="none" xmlns="http://www.w3.org/2000/svg">
<path d="M18.9492 36.499C29.0284 36.499 37.1992 28.3282 37.1992 18.249C37.1992 8.16983 29.0284 -0.000976562 18.9492 -0.000976562C8.87002 -0.000976562 0.699219 8.16983 0.699219 18.249C0.699219 28.3282 8.87002 36.499 18.9492 36.499Z" fill="url(#paint0_radial_4980_65767)"/>
<path d="M18.9492 36.499C29.0284 36.499 37.1992 28.3282 37.1992 18.249C37.1992 8.16983 29.0284 -0.000976562 18.9492 -0.000976562C8.87002 -0.000976562 0.699219 8.16983 0.699219 18.249C0.699219 28.3282 8.87002 36.499 18.9492 36.499Z" fill="url(#paint1_radial_4980_65767)"/>
<path d="M29.8665 13.7571C29.8569 13.0006 29.3699 12.2729 28.6448 11.9329L20.7744 8.23532C20.5021 8.10697 20.2162 8.04416 19.9371 8.04416C19.658 8.04416 19.3885 8.10697 19.1477 8.23532L12.1993 11.9329C12.0489 12.0134 11.9175 12.1145 11.8053 12.2333C11.7971 12.2415 11.7889 12.251 11.7807 12.2606L9.87091 14.2882C9.50837 14.6719 9.36199 15.2345 9.4988 15.812L10.964 22.0206C11.4154 23.9308 12.7411 25.624 14.5319 26.577L19.4843 29.2137C19.7839 29.3748 20.1054 29.454 20.4173 29.454C20.7292 29.454 21.0302 29.3748 21.2901 29.2137L25.5858 26.577C25.9716 26.3395 26.3164 26.0582 26.6187 25.7373L28.5463 23.6892C29.4615 22.7211 29.9705 21.4048 29.9513 19.9657L29.8665 13.7571Z" fill="url(#paint2_linear_4980_65767)"/>
<path d="M29.9505 19.9657C29.9697 21.4048 29.4608 22.7211 28.5455 23.6892C28.2459 24.0073 27.9025 24.2873 27.5195 24.5221L23.2238 27.1601C22.9638 27.3199 22.6629 27.399 22.3509 27.399C22.039 27.399 21.7175 27.3199 21.4193 27.1601L16.4655 24.5221C14.6747 23.569 13.3491 21.8759 12.8976 19.9657L11.4325 13.7571C11.3983 13.6137 11.3818 13.4717 11.3818 13.3325C11.3818 13.2956 11.3832 13.2587 11.3859 13.2219C11.3873 13.1864 11.3914 13.1509 11.3955 13.1154C11.3969 13.1099 11.3969 13.1058 11.3969 13.1003C11.401 13.0689 11.4065 13.0375 11.4133 13.0061C11.4516 12.8095 11.5241 12.6238 11.6294 12.46C11.6404 12.4422 11.6527 12.4231 11.665 12.4067C11.6787 12.3862 11.6924 12.3671 11.7088 12.3466C11.7211 12.3302 11.7334 12.3139 11.7471 12.2988C11.758 12.2852 11.769 12.2729 11.7799 12.2606C11.7881 12.2511 11.7964 12.2415 11.8046 12.2333C11.9167 12.1145 12.0481 12.0135 12.1986 11.9329L19.147 8.23535C19.3877 8.107 19.6572 8.04419 19.9363 8.04419C20.2154 8.04419 20.5013 8.107 20.7736 8.23535L28.644 11.9329C29.3691 12.2729 29.8561 13.0007 29.8657 13.7571L29.9505 19.9657Z" fill="url(#paint3_linear_4980_65767)"/>
<path d="M21.4276 12.854C21.4412 13.1534 21.453 13.4348 21.4834 13.7916C22.9873 13.8902 23.5177 14.326 23.6583 15.3881C23.6739 15.5049 23.6814 15.6299 23.6922 15.7697C23.4399 15.7467 23.031 15.733 22.6717 15.7354C22.3898 15.7372 22.1162 15.7473 21.9416 15.7567C21.9412 15.6974 21.9342 15.6399 21.9273 15.5906C21.8699 15.1499 21.6102 15.0118 20.8784 15.0167C20.2043 15.0212 20.0374 15.205 20.0722 15.4779C20.1155 15.8018 20.2985 16.0507 21.5442 16.2234C23.2832 16.4701 23.9527 17.0038 24.109 18.199C24.2428 19.22 23.7871 19.8533 22.2981 20.0048C22.3614 20.3532 22.4143 20.626 22.4872 20.925L21.5889 20.931L20.6988 20.937C20.6935 20.6375 20.6818 20.3644 20.6432 20.0076C19.1538 19.8777 18.6097 19.358 18.4847 18.411C18.4656 18.2696 18.4564 18.1298 18.4521 17.9702C18.7291 17.9931 19.1315 18.0167 19.532 18.014C19.8056 18.0122 20.0479 18.0106 20.2374 17.9929L20.253 18.1096C20.3173 18.5995 20.5658 18.7888 21.3058 18.7838C22.0459 18.7789 22.221 18.5868 22.1793 18.2712C22.1307 17.8979 21.89 17.6593 20.755 17.5089C18.8166 17.2635 18.2684 16.6369 18.1226 15.5337C17.994 14.5538 18.4864 13.9861 19.8286 13.8191C19.7718 13.4542 19.7106 13.1732 19.6376 12.866L20.5277 12.8601L21.426 12.8541L21.4276 12.854Z" fill="url(#paint4_linear_4980_65767)"/>
<defs>
<radialGradient id="paint0_radial_4980_65767" cx="0" cy="0" r="1" gradientUnits="userSpaceOnUse" gradientTransform="translate(19.8995 16.4216) rotate(131.433) scale(27.6894)">
<stop offset="0.566137" stop-color="#19F578" stop-opacity="0"/>
<stop offset="1" stop-color="#19F578"/>
</radialGradient>
<radialGradient id="paint1_radial_4980_65767" cx="0" cy="0" r="1" gradientUnits="userSpaceOnUse" gradientTransform="translate(13.5644 23.1466) rotate(-48.9219) scale(29.2203)">
<stop offset="0.566137" stop-color="#E8FB10" stop-opacity="0"/>
<stop offset="1" stop-color="#E8FB10"/>
</radialGradient>
<linearGradient id="paint2_linear_4980_65767" x1="13.8242" y1="7.13267" x2="28.018" y2="28.0843" gradientUnits="userSpaceOnUse">
<stop stop-color="#00778F"/>
<stop offset="0.534789" stop-color="#33C9CC"/>
<stop offset="1" stop-color="#00778F"/>
</linearGradient>
<linearGradient id="paint3_linear_4980_65767" x1="29.9576" y1="8.04419" x2="16.4387" y2="22.5301" gradientUnits="userSpaceOnUse">
<stop offset="0.0904478" stop-color="#DCEFEC"/>
<stop offset="1" stop-color="#81F7E6"/>
</linearGradient>
<linearGradient id="paint4_linear_4980_65767" x1="19.4899" y1="20.9451" x2="25.4962" y2="13.4886" gradientUnits="userSpaceOnUse">
<stop stop-color="#00778F"/>
<stop offset="1" stop-color="#33C9CC"/>
</linearGradient>
</defs>
</svg>
