<svg width="38" height="37" viewBox="0 0 38 37" fill="none" xmlns="http://www.w3.org/2000/svg">
<path d="M19.0508 36.499C29.13 36.499 37.3008 28.3282 37.3008 18.249C37.3008 8.16983 29.13 -0.000976562 19.0508 -0.000976562C8.97158 -0.000976562 0.800781 8.16983 0.800781 18.249C0.800781 28.3282 8.97158 36.499 19.0508 36.499Z" fill="url(#paint0_radial_4980_66126)"/>
<path d="M19.0508 36.499C29.13 36.499 37.3008 28.3282 37.3008 18.249C37.3008 8.16983 29.13 -0.000976562 19.0508 -0.000976562C8.97158 -0.000976562 0.800781 8.16983 0.800781 18.249C0.800781 28.3282 8.97158 36.499 19.0508 36.499Z" fill="url(#paint1_radial_4980_66126)"/>
<mask id="mask0_4980_66126" style="mask-type:luminance" maskUnits="userSpaceOnUse" x="8" y="9" width="22" height="18">
<path d="M26.8886 17.9301C34.1662 11.4254 24.2689 5.44802 19.5496 12.4054C17.5908 9.91691 13.211 8.01354 10.6744 10.3214C10.6816 10.3142 10.6888 10.307 10.6961 10.2998C10.3205 10.7199 8.84085 12.0045 8.59285 12.4885C7.18308 14.6278 9.08645 18.3406 12.1034 19.9153C8.80112 25.0283 15.1517 29.1047 18.8357 24.6166C20.5007 26.4429 23.3635 27.3699 25.2127 25.6796L26.8585 24.0652C26.8585 24.0652 26.8573 24.0664 26.8561 24.0676C28.2803 22.6578 27.9817 20.1718 26.3372 18.3009C26.525 18.1877 26.7092 18.0661 26.8886 17.9325V17.9301ZM17.6703 24.8225C17.6703 24.8225 17.6679 24.8225 17.6667 24.8225C17.6667 24.8225 17.6691 24.8225 17.6703 24.8225Z" fill="white"/>
</mask>
<g mask="url(#mask0_4980_66126)">
<path d="M12.1035 19.9128L13.7492 18.2984L11.1548 9.94211L7.02539 13.5671L8.88542 18.0937L12.1035 19.9128Z" fill="url(#paint2_linear_4980_66126)"/>
<path d="M13.75 18.2985L12.1042 19.9129C12.1042 19.9129 9.07039 23.1333 12.1042 25.7482C15.1381 28.3619 17.2389 26.2803 18.8365 24.6141L20.4352 22.9479L13.75 18.2985Z" fill="url(#paint3_linear_4980_66126)"/>
<path d="M18.8359 24.614L20.4347 22.9478L27.5474 23.2945L24.516 27.0134C24.516 27.0134 22.3899 27.7165 20.2313 26.5643C18.7998 25.7998 18.8371 24.6128 18.8371 24.6128L18.8359 24.614Z" fill="url(#paint4_linear_4980_66126)"/>
<path d="M28.233 10.219C31.3572 12.7593 28.8988 17.0452 26.5753 18.3237C30.866 23.6125 24.4564 27.4638 20.433 22.9479C16.9453 27.613 10.3804 23.2898 13.7477 18.2984C9.20055 15.2658 8.95736 11.9731 10.6741 10.3202C12.6907 8.37946 16.5383 8.76953 19.5493 12.4041C21.2938 9.48344 25.4231 7.93402 28.233 10.2178V10.219Z" fill="url(#paint5_linear_4980_66126)"/>
</g>
<defs>
<radialGradient id="paint0_radial_4980_66126" cx="0" cy="0" r="1" gradientUnits="userSpaceOnUse" gradientTransform="translate(20.001 16.4216) rotate(131.433) scale(27.6894)">
<stop offset="0.566137" stop-color="#19F578" stop-opacity="0"/>
<stop offset="1" stop-color="#19F578"/>
</radialGradient>
<radialGradient id="paint1_radial_4980_66126" cx="0" cy="0" r="1" gradientUnits="userSpaceOnUse" gradientTransform="translate(13.6659 23.1466) rotate(-48.9219) scale(29.2203)">
<stop offset="0.566137" stop-color="#E8FB10" stop-opacity="0"/>
<stop offset="1" stop-color="#E8FB10"/>
</radialGradient>
<linearGradient id="paint2_linear_4980_66126" x1="8.19799" y1="11.7395" x2="13.6697" y2="18.5837" gradientUnits="userSpaceOnUse">
<stop stop-color="#0DC567"/>
<stop offset="0.47" stop-color="#06A259"/>
<stop offset="0.98" stop-color="#00804C"/>
</linearGradient>
<linearGradient id="paint3_linear_4980_66126" x1="12.0356" y1="19.3495" x2="17.7758" y2="26.1949" gradientUnits="userSpaceOnUse">
<stop stop-color="#00804C"/>
<stop offset="0.49" stop-color="#0DC567"/>
<stop offset="0.62" stop-color="#0AB761"/>
<stop offset="0.87" stop-color="#039454"/>
<stop offset="0.99" stop-color="#00804C"/>
</linearGradient>
<linearGradient id="paint4_linear_4980_66126" x1="21.2666" y1="21.981" x2="25.2684" y2="26.7533" gradientUnits="userSpaceOnUse">
<stop stop-color="#00804C"/>
<stop offset="0.29" stop-color="#039052"/>
<stop offset="0.87" stop-color="#0ABA62"/>
<stop offset="1" stop-color="#0DC567"/>
</linearGradient>
<linearGradient id="paint5_linear_4980_66126" x1="13.1811" y1="24.1634" x2="28.1127" y2="7.61517" gradientUnits="userSpaceOnUse">
<stop offset="0.01" stop-color="#19F578"/>
<stop offset="0.06" stop-color="#24F572"/>
<stop offset="0.47" stop-color="#8CF83D"/>
<stop offset="0.75" stop-color="#CEFA1C"/>
<stop offset="0.88" stop-color="#E8FB10"/>
</linearGradient>
</defs>
</svg>
