<svg width="33" height="32" viewBox="0 0 33 32" fill="none" xmlns="http://www.w3.org/2000/svg">
<g clip-path="url(#clip0_5517_23512)">
<path d="M28.3573 22.9182C24.2385 25.5605 18.958 25.5605 14.8392 22.9182C12.4203 21.3623 10.3282 18.8507 10.529 14.8413L11.1659 14.9854L21.5996 17.3489L31.2964 15.1521L31.8893 15.018L32.6689 14.8413C32.6689 14.8867 32.6729 14.9313 32.6756 14.976C32.8229 18.9074 30.7495 21.3796 28.358 22.9182H28.3573Z" fill="#1AA0AE"/>
<path d="M28.3593 22.9183C26.1198 24.3568 23.4795 25.0431 20.8232 24.8764C20.8232 24.8764 28.442 23.4632 30.8228 16.8795C30.9322 16.5807 31.0296 16.2713 31.1143 15.9498C31.1849 15.6918 31.2456 15.4263 31.297 15.1536C31.3857 14.6934 31.4477 14.2279 31.483 13.7604C31.4984 13.5763 31.5091 13.3889 31.5157 13.2002C32.2627 13.6944 32.6835 14.2519 32.6835 14.8428C32.6835 14.8881 32.6808 14.9328 32.6755 14.9775C32.8249 18.9076 30.7515 21.3798 28.3593 22.919V22.9183Z" fill="#00778F"/>
<path d="M32.6812 14.8413C32.6812 14.8866 32.6785 14.9313 32.6732 14.976C32.5965 15.6782 31.9249 16.3305 30.8205 16.878C28.8345 17.865 25.4513 18.5146 21.6053 18.5146C15.4884 18.5146 10.5293 16.8693 10.5293 14.8413C10.5293 12.8132 15.4884 11.168 21.6053 11.168C25.9421 11.168 29.6955 11.9949 31.5135 13.1987C32.2604 13.6949 32.6812 14.2504 32.6812 14.8413Z" fill="#7FB5F5"/>
<path d="M32.681 14.8413C32.681 14.8867 32.6783 14.9313 32.673 14.976C32.5963 15.6783 31.9247 16.3305 30.8203 16.878C30.9297 16.5793 31.0271 16.2698 31.1117 15.9484C31.1824 15.6903 31.2431 15.4249 31.2945 15.1521C31.3832 14.6919 31.4452 14.2264 31.4805 13.7589C31.4959 13.5749 31.5066 13.3875 31.5132 13.1987C32.2602 13.6949 32.681 14.2504 32.681 14.8413Z" fill="#659EE0"/>
<path d="M31.9391 14.6986C31.9391 15.1421 31.6444 15.5649 31.1122 15.9491C29.7144 16.9574 26.6759 17.7003 23.0246 17.8631C22.5371 17.8851 22.0383 17.8957 21.5314 17.8957C17.4807 17.8957 13.9701 17.1848 12.2501 16.1445C11.5299 15.711 11.123 15.2201 11.123 14.6986C11.123 12.9326 15.7827 11.5015 21.5308 11.5015C26.2138 11.5015 30.1738 12.4511 31.481 13.7583C31.7798 14.0557 31.9398 14.3718 31.9398 14.6986H31.9391Z" fill="#6F7772"/>
<path d="M28.4259 15.8704C27.7077 15.865 27.0294 15.8504 26.4032 15.829C23.9684 15.7457 22.3404 15.5729 22.3404 15.5729L20.3857 12.6539C20.3857 12.6539 20.8806 9.14198 22.8346 8.47307C24.768 7.81284 26.0718 6.28029 27.0328 7.27731C27.0435 7.28798 27.0541 7.29932 27.0641 7.31066C28.0291 8.37237 27.4109 9.04194 29.1422 9.95694C30.8742 10.8726 29.3149 11.6142 30.1806 12.6532C31.0462 13.6923 31.9372 15.8917 28.4253 15.869L28.4259 15.8704Z" fill="#77B317"/>
<path d="M28.4272 15.8703C27.7089 15.865 27.0307 15.8503 26.4045 15.829L24.1943 13.9483C24.1943 13.9483 25.4008 12.8833 26.7526 14.5158C28.1044 16.1491 30.3299 15.2334 29.7357 14.1951C29.1414 13.1567 28.6739 12.3264 29.2408 11.17C29.8077 10.0136 27.1134 10.7565 27.012 7.93615C27.004 7.71474 27.0113 7.49333 27.034 7.27258C27.0447 7.28325 27.0554 7.29459 27.0654 7.30593C28.0304 8.36764 27.4122 9.03721 29.1434 9.95221C30.8754 10.8679 29.3162 11.6095 30.1818 12.6485C31.0475 13.6875 31.9384 15.8917 28.4265 15.869L28.4272 15.8703Z" fill="#6FAB0E"/>
<path d="M28.45 14.5319C28.42 14.5319 28.3907 14.5239 28.3647 14.5092C26.0739 13.2114 24.7301 13.875 24.7167 13.8817C24.632 13.9257 24.5273 13.8923 24.4833 13.8076C24.4393 13.723 24.4726 13.6182 24.5573 13.5742C24.6187 13.5429 26.0819 12.8186 28.5347 14.2078C28.6181 14.2551 28.6468 14.3612 28.5994 14.4445C28.5688 14.4986 28.5114 14.5319 28.4494 14.5319H28.45Z" fill="#8BC42E"/>
<path d="M24.5919 13.2341C24.5532 13.2341 24.5159 13.2214 24.4859 13.1968C24.4112 13.1381 24.3979 13.0294 24.4565 12.9547C24.4565 12.9547 24.4565 12.9547 24.4572 12.954C24.5159 12.88 25.9264 11.1274 28.4633 11.2981C28.5587 11.3047 28.6307 11.3868 28.6247 11.4828C28.618 11.5782 28.536 11.6502 28.44 11.6442C26.0845 11.4848 24.742 13.1521 24.7286 13.1687C24.696 13.2108 24.6453 13.2348 24.5919 13.2348V13.2341Z" fill="#8BC42E"/>
<path d="M22.9247 13.234C22.8294 13.2347 22.7507 13.1587 22.75 13.0627C22.75 13.008 22.7747 12.956 22.8187 12.9226C22.8474 12.9006 25.7124 10.6998 25.8778 8.38298C25.8845 8.28762 25.9678 8.21559 26.0632 8.22293C26.1586 8.2296 26.2306 8.31296 26.2232 8.40833C26.0465 10.8825 23.1508 13.1053 23.0281 13.1987C22.9988 13.2214 22.9621 13.2334 22.9254 13.234H22.9247Z" fill="#8BC42E"/>
<path d="M22.3871 13.1354C22.3791 13.1354 22.3711 13.1354 22.3625 13.1354C22.2678 13.122 22.2017 13.0347 22.2157 12.94C22.2284 12.8486 22.5452 10.6865 23.3942 9.48275C23.4495 9.40472 23.5576 9.38605 23.6356 9.4414C23.7136 9.49675 23.7323 9.60479 23.6769 9.68282C22.8766 10.8186 22.5625 12.968 22.5585 12.9893C22.5452 13.074 22.4725 13.1361 22.3871 13.1361V13.1354Z" fill="#8BC42E"/>
<path d="M20.8246 13.6462L15.3246 14.8733L15.2839 14.8827C12.4883 16.4172 10.8557 14.9327 10.2375 13.7683C9.72129 12.7979 10.4109 12.4658 10.6243 11.7636C10.671 11.6115 10.691 11.4528 10.683 11.2947C10.6336 10.233 11.3259 9.06859 13.3786 9.93423C15.4313 10.7999 15.3826 9.81086 17.9556 9.58811C20.5285 9.36537 20.8253 13.6469 20.8253 13.6469L20.8246 13.6462Z" fill="#77B317"/>
<path d="M15.7621 13.5355L15.3246 14.8753L15.2839 14.8846C12.4883 16.4192 10.8557 14.9346 10.2375 13.7702C9.72129 12.7999 10.4109 12.4678 10.6243 11.7655C10.6243 11.8349 10.6896 14.6092 12.2502 14.1937C13.8294 13.7716 15.7621 13.5355 15.7621 13.5355Z" fill="#6FAB0E"/>
<path d="M14.3075 12.5832C14.2601 12.5832 14.2141 12.5645 14.1814 12.5298C12.6295 10.8753 11.5758 11.5468 11.5652 11.5542C11.4858 11.6075 11.3778 11.5855 11.3251 11.5061C11.2717 11.4268 11.2937 11.3187 11.3731 11.2661C11.4265 11.2307 12.6842 10.4271 14.4342 12.2938C14.4995 12.3638 14.4955 12.4738 14.4255 12.5392C14.3935 12.5692 14.3515 12.5859 14.3075 12.5859V12.5839V12.5832Z" fill="#8BC42E"/>
<path d="M14.7707 13.9011C14.7394 13.9011 14.7087 13.8924 14.6813 13.8764C13.7337 13.2895 12.5466 13.2455 11.5582 13.761C11.4742 13.8064 11.3688 13.775 11.3228 13.691C11.2801 13.6123 11.3041 13.5142 11.3788 13.4642C11.4462 13.4242 13.0481 12.4825 14.8607 13.5796C14.9408 13.6316 14.9641 13.7383 14.9128 13.819C14.8814 13.8677 14.8281 13.8971 14.7707 13.8984V13.9011Z" fill="#8BC42E"/>
<path d="M20.6495 11.7415C20.6621 11.7755 20.6741 11.8102 20.6841 11.8475C21.0316 13.0226 19.9946 14.4478 18.3093 15.0707C16.5733 15.7149 14.8067 15.2694 14.3652 14.0756C14.3545 14.0476 14.3445 14.0196 14.3365 13.9909C13.9717 12.8125 15.0101 11.3773 16.7047 10.7478C18.44 10.1015 20.206 10.5464 20.6495 11.7415Z" fill="#FBFDF2"/>
<path d="M19.8872 12.3316C20.1366 13.0031 19.5531 13.8401 18.5834 14.2002C18.0726 14.3896 17.5571 14.4096 17.1462 14.2863C16.7748 14.1769 16.4947 13.9521 16.376 13.6347C16.1266 12.9631 16.7101 12.1262 17.6798 11.7667C18.2406 11.5586 18.8068 11.5546 19.2337 11.72C19.5451 11.8401 19.7819 12.0495 19.8872 12.3322V12.3316Z" fill="#F6DB12"/>
<path d="M19.8875 12.3315C20.1369 13.0031 19.5533 13.8401 18.5837 14.2002C18.0728 14.3896 17.5573 14.4096 17.1465 14.2862C18.1168 14.0888 20.0955 13.4613 19.2339 11.72C19.5453 11.84 19.7821 12.0494 19.8875 12.3322V12.3315Z" fill="#E8CE0C"/>
<path d="M20.6835 11.8455C21.031 13.0205 19.994 14.4457 18.3087 15.0686C16.5727 15.7128 14.8061 15.2673 14.3646 14.0736C14.3539 14.0456 14.3439 14.0176 14.3359 13.9889C14.458 14.0949 17.5131 16.6165 20.1287 12.9865C20.4401 12.5544 20.6155 12.1762 20.6835 11.8455Z" fill="#EEF0E5"/>
<path d="M28.1268 18.1825C26.6215 18.5613 26.3715 18.5313 25.0056 19.1655C24.5568 19.3743 24.1633 19.2949 23.8379 19.0942C23.1683 18.6834 22.7842 17.7704 22.7842 17.7704C22.7842 17.7704 23.4011 16.0904 24.7889 14.3738C25.6585 13.2961 25.7699 14.0717 26.1814 14.8427C26.4255 15.3002 26.7756 15.7557 27.4552 15.8197C29.2752 15.9897 29.632 17.8044 28.1268 18.1825Z" fill="#8BC42E"/>
<path d="M28.1277 18.1825C26.6225 18.5613 26.3724 18.5313 25.0066 19.1655C24.5578 19.3743 24.1643 19.2949 23.8389 19.0942C24.2137 19.0668 24.6351 18.9721 24.9533 18.7254C25.7022 18.1498 28.856 17.7784 28.077 16.9441C27.2981 16.1098 25.9356 16.3005 26.181 14.8413C26.4251 15.2988 26.7752 15.7543 27.4548 15.8183C29.2768 15.9904 29.6336 17.805 28.1277 18.1825Z" fill="#7FBA1E"/>
<path d="M25.0158 18.51C25.0085 18.51 25.0005 18.51 24.9931 18.51C23.682 18.3392 22.9791 16.4646 22.9497 16.3872C22.9204 16.2958 22.9711 16.1985 23.0624 16.1691C23.1478 16.1418 23.2405 16.1845 23.2752 16.2672C23.2819 16.2852 23.9361 18.0251 25.0378 18.1685C25.1325 18.1792 25.2012 18.2645 25.1905 18.3593C25.1805 18.4479 25.1052 18.5146 25.0158 18.5133V18.5093V18.51Z" fill="#A6DB4F"/>
<path d="M26.3845 16.9167C24.8506 17.1568 23.1113 15.705 23.1113 15.705L26.3845 16.9167Z" fill="#6FAB0E"/>
<path d="M26.7104 16.4245C24.3435 16.4245 23.9234 15.1334 23.9054 15.0754C23.8787 14.9833 23.9314 14.8873 24.0234 14.8606C24.1128 14.8346 24.2075 14.8846 24.2361 14.9733C24.2535 15.0267 24.661 16.1938 27.0545 16.0684C27.1499 16.0617 27.2326 16.1331 27.2392 16.2285C27.2459 16.3238 27.1745 16.4065 27.0792 16.4132C27.0772 16.4132 27.0752 16.4132 27.0725 16.4132C26.9465 16.4199 26.8264 16.4232 26.7104 16.4232V16.4245Z" fill="#A6DB4F"/>
<path d="M25.9292 15.2642C25.9292 16.692 24.3199 17.8491 22.3345 17.8491C22.0164 17.8491 21.699 17.8191 21.3869 17.7577C19.861 17.459 18.7393 16.4553 18.7393 15.2635C18.7393 13.8357 20.3492 12.6786 22.3345 12.6786C23.757 12.6786 24.9882 13.2728 25.5717 14.1351C25.8018 14.4666 25.9265 14.86 25.9292 15.2642Z" fill="#D60B00"/>
<path d="M21.9322 15.0908C21.9322 15.0908 20.4664 16.0185 20.8005 16.464C21.1346 16.9095 23.4721 17.1129 23.6022 16.668C23.7322 16.2226 21.9329 15.0915 21.9329 15.0915L21.9322 15.0908Z" fill="#E32920"/>
<path d="M22.6182 14.8308C22.6182 14.8308 23.7132 16.3273 24.3068 16.0612C24.9003 15.7951 25.103 14.2932 24.8443 14.1999C24.5855 14.1072 22.6182 14.8301 22.6182 14.8301V14.8308Z" fill="#E32920"/>
<path d="M21.7827 14.3846C21.7827 14.3846 19.4818 13.8097 19.4638 14.4032C19.4452 14.9968 19.7053 15.8504 20.0207 15.8131C20.3361 15.7757 21.7833 14.3846 21.7833 14.3846H21.7827Z" fill="#E32920"/>
<path d="M21.9484 13.9217C21.9484 13.9217 20.3699 13.6249 20.5379 13.3842C20.7053 13.1434 22.3005 12.5672 22.616 12.976C22.9314 13.3849 21.9484 13.9217 21.9484 13.9217Z" fill="#E32920"/>
<path d="M22.333 14.1918C22.333 14.1918 22.9899 12.9941 23.4721 13.2368C23.9543 13.4796 24.0556 13.7937 24.0103 13.9231C23.9649 14.0524 22.333 14.1918 22.333 14.1918Z" fill="#E32920"/>
<path d="M25.9291 15.2641C25.9291 16.692 24.3199 17.8491 22.3345 17.8491C22.0164 17.8491 21.6989 17.8191 21.3868 17.7577L21.2041 17.1675C21.2041 17.1675 25.7304 17.9778 25.5697 14.1357C25.8004 14.4672 25.9258 14.86 25.9291 15.2641Z" fill="#AD0900"/>
<path d="M23.0245 17.8631C22.537 17.8851 22.0382 17.8958 21.5313 17.8958C17.4805 17.8958 13.9699 17.1849 12.25 16.1445C12.25 16.0791 12.254 16.0071 12.262 15.9324C12.3294 15.2802 12.7182 14.2718 14.4621 14.1725C17.0591 14.0237 16.5415 12.952 17.8387 13.8997C19.1365 14.8474 18.8037 15.3962 21.5306 16.1018C23.1712 16.5266 23.2346 17.3082 23.0238 17.8624L23.0245 17.8631Z" fill="#8BC42E"/>
<path d="M23.0245 17.863C22.537 17.885 22.0382 17.8957 21.5313 17.8957C17.4805 17.8957 13.9699 17.1848 12.25 16.1444C12.25 16.079 12.254 16.007 12.262 15.9323C13.3564 16.4345 16.3635 17.5836 20.8244 17.5062C26.5204 17.4068 17.84 17.0714 17.8393 13.8976C19.1371 14.8473 18.8043 15.3941 21.5313 16.0997C23.1719 16.5265 23.2353 17.3081 23.0245 17.8623V17.863Z" fill="#7FBA1E"/>
<path d="M17.3767 17.8031C17.33 17.8031 17.2853 17.7837 17.2533 17.7497C16.0482 16.5206 16.7845 14.9634 16.7918 14.9481C16.8339 14.862 16.9372 14.826 17.0233 14.868C17.1093 14.91 17.1453 15.0134 17.1033 15.0994C17.0766 15.1528 16.4664 16.4553 17.4994 17.507C17.5668 17.575 17.5661 17.6844 17.4981 17.7517C17.4654 17.7837 17.4221 17.8017 17.3767 17.8017V17.8031Z" fill="#A6DB4F"/>
<path d="M15.7615 17.5329C15.7295 17.5329 15.6981 17.5235 15.6708 17.5069C14.2669 16.6372 14.5957 15.7742 14.6091 15.7376C14.6544 15.6535 14.7598 15.6222 14.8438 15.6682C14.9152 15.7069 14.9499 15.7896 14.9279 15.8676C14.9192 15.8903 14.7104 16.5072 15.8488 17.2121C15.9289 17.2641 15.9522 17.3708 15.9009 17.4515C15.8695 17.5002 15.8155 17.5302 15.7581 17.5309L15.7621 17.5329H15.7615Z" fill="#A6DB4F"/>
<path d="M19.7553 18.0218C19.7086 18.0218 19.6646 18.0025 19.6325 17.9684C19.5652 17.9004 19.5652 17.7911 19.6325 17.723C20.1467 17.2135 19.9273 16.5459 19.9247 16.5393C19.894 16.4486 19.9427 16.3505 20.0327 16.3199C20.1234 16.2892 20.2214 16.3379 20.2521 16.4279C20.2641 16.4632 20.5415 17.3095 19.8753 17.9698C19.8433 18.0025 19.7999 18.0211 19.7546 18.0218H19.7553Z" fill="#A6DB4F"/>
<path d="M31.9402 14.6985C31.9402 15.142 31.6455 15.5648 31.1133 15.949C31.184 15.6909 31.2447 15.4254 31.296 15.1527C31.3847 14.6925 31.4467 14.227 31.4821 13.7595C31.7802 14.0556 31.9402 14.3717 31.9402 14.6985Z" fill="#6F7772"/>
<path d="M5.13626 20.6657C5.89053 20.1742 7.45442 20.2096 8.62817 20.7451C9.63854 21.2059 10.0313 21.8862 9.64054 22.3804C9.57718 22.4604 9.49315 22.5358 9.38778 22.6044C9.35043 22.6285 9.33576 22.6818 9.32642 22.7438C9.48181 22.7452 9.65254 22.7545 9.68989 22.7045C12.1834 23.332 15.4026 25.8096 19.2633 27.4542C19.5788 27.6029 19.5374 28.1584 19.25 28.3552C18.9625 28.5519 18.475 28.5872 18.1663 28.4339C14.655 26.9013 11.998 24.1957 9.16103 23.1406C8.42144 23.8882 7.24835 23.9783 6.46674 23.6895C4.61808 23.0066 4.31997 20.9378 5.13559 20.6657H5.13626Z" fill="#6F7772"/>
<path d="M5.1037 20.6037C5.85997 20.0862 7.43253 20.1302 8.61562 20.7024C9.60197 21.1793 10.0748 21.8135 9.674 22.3897C12.1622 23.0333 15.3307 25.7662 19.1741 27.4035C19.4895 27.5522 19.5128 27.8343 19.2247 28.031C18.9373 28.2278 18.4498 28.2631 18.141 28.1097C14.6444 26.5839 11.9895 23.8682 9.15248 22.8052C9.12046 22.8198 9.08779 22.8339 9.05444 22.8472C8.22948 23.1713 6.90501 23.0733 5.87597 22.5758C4.69288 22.0042 4.34743 21.1212 5.10436 20.6037H5.1037Z" fill="#E2E0D9"/>
<path d="M5.56693 20.8631C4.96205 21.2559 5.23481 21.9202 6.17582 22.3477C6.99477 22.7191 8.04982 22.7892 8.70872 22.5417C8.80675 22.5051 8.89612 22.461 8.97482 22.4104C9.05951 22.3557 9.12687 22.2957 9.17755 22.2316C9.49033 21.8368 9.17555 21.2933 8.36593 20.9258C7.42493 20.4983 6.17115 20.4703 5.56626 20.8631H5.56693Z" fill="#B9B8B0"/>
<path d="M4.91623 24.6312C4.25733 24.2511 3.61644 23.6429 3.05957 22.8799V22.5685C3.65712 23.3127 4.258 23.8516 4.86221 24.2011C5.48244 24.5592 5.52445 24.9833 4.91623 24.6319V24.6312Z" fill="#6F7772"/>
<path d="M4.10502 25.1027C3.44612 24.7225 2.80522 24.1143 2.24902 23.3514V23.0399C2.84657 23.7842 3.44678 24.323 4.05167 24.6718C4.67189 25.03 4.7139 25.4541 4.10569 25.1027H4.10502Z" fill="#6F7772"/>
<path d="M3.30229 25.5675C2.64338 25.1874 2.00249 24.5791 1.44629 23.8162V23.5048C2.04384 24.249 2.64405 24.7879 3.24827 25.1373C3.86849 25.4955 3.9105 25.9196 3.30229 25.5682V25.5675Z" fill="#6F7772"/>
<path d="M5.27014 23.9642C4.66592 23.6155 4.06504 23.0759 3.46816 22.3317L3.06268 22.5677C3.65956 23.312 4.25978 23.8509 4.86466 24.2003C4.91067 24.227 4.95602 24.2517 5.00204 24.2764L4.59723 24.5118C4.59723 24.5118 4.59856 24.5131 4.59923 24.5138C4.55255 24.4891 4.50586 24.4638 4.45918 24.4364C3.85496 24.0876 3.25408 23.5481 2.65787 22.8045L2.25239 23.0406C2.8486 23.7849 3.44949 24.3237 4.0537 24.6725C4.09905 24.6985 4.1444 24.7239 4.18975 24.7479L3.79428 24.9779C3.74826 24.9533 3.70224 24.9286 3.65623 24.9019C3.05201 24.5531 2.45113 24.0136 1.85492 23.2693L1.44944 23.5054C2.04565 24.2497 2.64653 24.7885 3.25075 25.138C3.2981 25.1653 3.34545 25.1914 3.3928 25.216C3.39147 25.216 3.38946 25.216 3.38813 25.216L2.99199 25.4461C2.94597 25.4214 2.89996 25.3968 2.85394 25.3701C2.24972 25.0213 1.64884 24.4818 1.05196 23.7375L0.646484 23.9736C1.24336 24.7179 1.84358 25.2567 2.44846 25.6062C2.97998 25.9129 3.51484 26.073 4.05237 26.0957C4.21909 26.1023 4.38382 26.059 4.52854 25.975L5.30215 25.5255C5.89903 25.1787 5.89036 24.319 5.29014 23.9763C5.28414 23.9729 5.27747 23.9689 5.27147 23.9656L5.27014 23.9642Z" fill="#E2E0D9"/>
<path d="M5.1228 25.6261V25.6281L4.72532 25.8588C4.41054 26.0409 4.04174 26.1143 3.68162 26.0569C3.26813 25.9909 2.85666 25.8415 2.44651 25.6047C1.84229 25.256 1.24141 24.7164 0.644531 23.9722V24.2836C1.20006 25.0466 1.84096 25.6548 2.49986 26.0349C2.83065 26.2263 3.16677 26.3597 3.49822 26.4264C3.91503 26.5104 4.34785 26.4304 4.71532 26.217V26.2176L5.1208 25.9816L5.20416 25.9375L5.12146 25.6248L5.1228 25.6261Z" fill="#6F7772"/>
<path d="M5.38432 25.6956C7.87788 26.3231 11.097 28.8007 14.9577 30.4453C15.2732 30.594 15.2318 31.1495 14.9444 31.3462C14.657 31.543 14.1695 31.5783 13.8607 31.4249C10.3494 29.8924 7.69248 27.1868 4.85547 26.1317C5.12356 25.9443 5.34698 25.7462 5.38499 25.6956H5.38432Z" fill="#6F7772"/>
<path d="M5.36758 25.3799C7.85581 26.0235 11.0243 28.7565 14.8676 30.3937C15.1831 30.5424 15.2064 30.8246 14.9183 31.0213C14.6309 31.218 14.1434 31.2534 13.8346 31.1C10.338 29.5741 7.68308 26.8585 4.84606 25.7954C4.81405 25.8101 5.36758 25.3793 5.36758 25.3793V25.3799Z" fill="#E2E0D9"/>
<path d="M8.14402 6.97389C7.50579 9.5468 1.16286 9.24136 0.529297 6.80249L0.964119 17.5257C1.25089 19.5397 4.44469 19.7791 6.0526 19.2083C6.66949 18.9888 7.31305 18.628 7.58915 18.0045C7.64651 17.8684 7.70453 17.7217 7.70919 17.5743C7.7232 17.539 8.14468 6.96121 8.14402 6.97389Z" fill="white"/>
<path d="M7.61184 7.93091C6.29804 9.25672 2.59205 9.02196 1.04883 7.94158L1.43097 17.1362C1.67839 18.8715 4.43004 19.0782 5.8152 18.586C6.34672 18.3973 6.90159 18.0859 7.139 17.549C7.18835 17.4316 7.23837 17.3056 7.24237 17.1782C7.25438 17.1475 7.59517 8.22235 7.61184 7.93091Z" fill="#FFD105"/>
<path d="M6.6446 6.66773C7.93039 7.3453 7.93706 8.44436 6.65993 9.12194C5.38214 9.79951 3.30407 9.79951 2.01761 9.12194C0.731816 8.44436 0.725147 7.3453 2.00227 6.66773C3.28006 5.99015 5.35814 5.99015 6.6446 6.66773Z" fill="#FFE260"/>
<path d="M7.02038 5.16527C8.51225 6.02624 8.52025 7.42274 7.03772 8.28438C5.55586 9.14536 3.145 9.14536 1.65313 8.28438C0.161268 7.42341 0.153932 6.02691 1.63579 5.16527C3.11766 4.30429 5.52852 4.30363 7.02038 5.16527Z" fill="white"/>
<path d="M6.62573 5.50953C7.89952 6.18043 7.90619 7.26882 6.6404 7.93973C5.37528 8.61064 3.31721 8.61064 2.04343 7.93973C0.769638 7.26882 0.763636 6.18043 2.02875 5.50953C3.29387 4.83862 5.35194 4.83862 6.62573 5.50953Z" fill="white"/>
<path d="M7.40663 7.29546C6.07882 5.75758 2.59624 5.75291 1.25977 7.27479C2.53756 8.85802 6.1195 8.86269 7.40663 7.29546Z" fill="#FFE260"/>
<path d="M5.41073 7.9396C5.39072 8.32574 4.45039 8.27439 4.47306 7.88825C4.49307 7.50211 5.4334 7.55347 5.41073 7.9396Z" fill="#E5BC04"/>
<path d="M6.1639 2.4356C5.35828 5.25528 4.63736 7.74817 4.63736 7.74817C4.53732 8.06361 5.26425 8.27369 5.34695 7.95224L6.87349 2.64034L6.1639 2.43494V2.4356Z" fill="#EE4F4B"/>
<path d="M4.1088 9.64417L3.54327 11.5989C3.50392 11.7342 3.6313 11.8903 3.8267 11.947C4.02277 12.0037 4.21284 11.9397 4.25219 11.8043L4.86707 9.64417C4.61765 9.66351 4.41225 9.67484 4.10814 9.64417H4.1088Z" fill="#E5BC04"/>
<path d="M6.87235 2.64102C6.78832 2.96114 6.06273 2.75106 6.16277 2.43561C6.2468 2.1155 6.97239 2.32558 6.87235 2.64102Z" fill="#A73734"/>
<path d="M5.38729 15.4515C4.69171 16.4078 3.32922 16.6172 2.25684 15.9676L4.91512 12.3143C5.86279 13.1346 6.08287 14.4958 5.38662 15.4515H5.38729Z" fill="#FFE677"/>
<path d="M6.25959 16.0037C5.20121 17.4582 3.16448 17.779 1.70996 16.7206L1.87002 16.5012C4.93245 18.3565 8.09291 14.0096 5.38661 11.6688L5.54266 11.4547C6.99718 12.5131 7.31797 14.5498 6.25959 16.0043V16.0037Z" fill="#FFDE49"/>
<path d="M5.8322 15.6881C4.91187 16.9533 3.18792 17.2874 1.87012 16.5011L2.25826 15.9676C4.75315 17.4968 7.138 14.2163 4.91654 12.3143L5.38604 11.6687C6.53978 12.6804 6.75186 14.4237 5.83153 15.6888L5.8322 15.6881Z" fill="#FFF2BB"/>
<path d="M4.39277 16.3345L3.58182 14.2664L6.03002 14.0903L5.47249 15.6562L4.39344 16.3345M4.37276 16.3958L5.50584 15.6836L6.08738 13.9883L3.52246 14.2297L4.32408 16.4171L4.3721 16.3958H4.37276Z" fill="#FFF2BB"/>
<path d="M3.33105 14.4925L3.72119 13.9563L3.87925 14.2264L3.65984 14.5258L3.33105 14.4925Z" fill="#FFF2BB"/>
<path d="M2.79665 15.6488C2.92736 15.3914 2.79198 15.3241 2.6646 15.5828C2.53389 15.8402 2.66927 15.9076 2.79665 15.6488Z" fill="#FFDE49"/>
<path d="M3.52542 15.7115C3.53009 15.4227 3.3787 15.4221 3.37804 15.7102C3.37337 15.9983 3.52475 15.9996 3.52542 15.7115Z" fill="#FFDE49"/>
<path d="M3.23153 15.2573C3.30022 14.9772 3.15284 14.9419 3.08815 15.2233C3.01946 15.5034 3.16684 15.5381 3.23153 15.2573Z" fill="#FFDE49"/>
<path d="M3.53226 14.8413C3.53693 14.5532 3.38554 14.5518 3.38487 14.8399C3.3802 15.128 3.53159 15.1294 3.53226 14.8413Z" fill="#FFDE49"/>
<path d="M3.06063 15.975C3.12932 15.6949 2.98194 15.6595 2.91725 15.941C2.84856 16.2211 2.99594 16.2557 3.06063 15.975Z" fill="#FFDE49"/>
<path d="M3.80936 15.2727C3.728 14.9959 3.58328 15.0393 3.66865 15.3154C3.75001 15.5921 3.89473 15.5488 3.80936 15.2727Z" fill="#FFDE49"/>
<path d="M4.02226 15.9796C3.94089 15.7028 3.79617 15.7462 3.88154 16.0223C3.9629 16.299 4.10762 16.2557 4.02226 15.9796Z" fill="#FFDE49"/>
<path d="M4.20916 15.0573C4.10445 14.7886 3.96373 14.8446 4.07244 15.112C4.17714 15.3808 4.31786 15.3248 4.20916 15.0573Z" fill="#FFDE49"/>
<path d="M4.48162 15.7429C4.37691 15.4741 4.2362 15.5301 4.3449 15.7976C4.4496 16.0663 4.59032 16.0103 4.48162 15.7429Z" fill="#FFDE49"/>
<path d="M4.10124 14.5217C3.9125 14.303 3.79913 14.403 3.99053 14.6184C4.17927 14.8365 4.29264 14.7371 4.10124 14.5217Z" fill="#FFDE49"/>
<path d="M4.58757 15.0774C4.39883 14.8586 4.28546 14.9587 4.47686 15.1741C4.66559 15.3928 4.77897 15.2928 4.58757 15.0774Z" fill="#FFDE49"/>
<path d="M4.75255 14.7106C4.51313 14.5499 4.42977 14.6766 4.67119 14.8333C4.91061 14.994 4.99397 14.8673 4.75255 14.7106Z" fill="#FFDE49"/>
<path d="M5.2213 15.084C4.98188 14.9233 4.89852 15.05 5.13994 15.2067C5.37936 15.3674 5.46272 15.2407 5.2213 15.084Z" fill="#FFDE49"/>
<path d="M4.54284 14.3078C4.26274 14.2391 4.22739 14.3864 4.50882 14.4511C4.78892 14.5198 4.8236 14.3724 4.54284 14.3078Z" fill="#FFDE49"/>
<path d="M5.24277 14.531C4.96267 14.4623 4.92799 14.6097 5.20875 14.6744C5.48885 14.7431 5.52353 14.5957 5.24277 14.531Z" fill="#FFDE49"/>
<path d="M4.94889 15.5328C4.76016 15.3141 4.64679 15.4141 4.83819 15.6295C5.02692 15.8483 5.1403 15.7482 4.94889 15.5328Z" fill="#FFDE49"/>
<path d="M5.44312 14.2063C5.15501 14.187 5.14634 14.3383 5.43445 14.353C5.72255 14.3724 5.73122 14.221 5.44312 14.2063Z" fill="#FFDE49"/>
<path d="M4.73784 12.9165C4.53043 13.1172 4.4264 13.0079 4.63647 12.8098C4.84388 12.6091 4.94792 12.7184 4.73784 12.9165Z" fill="#FFDE49"/>
<path d="M5.01399 13.5955C4.73989 13.6849 4.69388 13.5408 4.96931 13.4554C5.24341 13.3661 5.28942 13.5101 5.01399 13.5955Z" fill="#FFDE49"/>
<path d="M4.49159 13.4481C4.24417 13.5961 4.16748 13.4661 4.4169 13.3213C4.66432 13.1733 4.74102 13.3033 4.49159 13.4481Z" fill="#FFDE49"/>
<path d="M4.18391 13.8595C3.90982 13.9489 3.8638 13.8049 4.13923 13.7195C4.41333 13.6301 4.45935 13.7742 4.18391 13.8595Z" fill="#FFDE49"/>
<path d="M5.12734 13.0739C4.87991 13.222 4.80322 13.0919 5.05264 12.9472C5.30006 12.7991 5.37676 12.9292 5.12734 13.0739Z" fill="#FFDE49"/>
<path d="M4.67793 13.995C4.38916 13.999 4.3885 13.8476 4.6766 13.8476C4.9647 13.8436 4.96603 13.995 4.67793 13.995Z" fill="#FFDE49"/>
<path d="M5.41524 13.9895C5.12647 13.9935 5.1258 13.8421 5.4139 13.8421C5.70201 13.8381 5.70334 13.9895 5.41524 13.9895Z" fill="#FFDE49"/>
</g>
<defs>
<clipPath id="clip0_5517_23512">
<rect width="32" height="32" fill="white" transform="translate(0.601562)"/>
</clipPath>
</defs>
</svg>
